<svg width="2110" height="1237" viewBox="0 0 2110 1237" fill="none" xmlns="http://www.w3.org/2000/svg">
<g clip-path="url(#clip0_322_9)">
<rect width="2110" height="1237" fill="white"/>
<rect x="86" y="39" width="805" height="102" fill="#D9D9D9"/>
<rect x="86" y="180" width="244" height="102" fill="#D9D9D9"/>
<rect x="938" y="180" width="1090" height="102" fill="#D9D9D9"/>
<rect x="86" y="1092" width="1942" height="102" fill="#D9D9D9"/>
<rect x="86" y="329" width="805" height="732" fill="#D9D9D9"/>
<rect x="100" y="765" width="777" height="283" fill="#9C9C9C"/>
<rect x="938" y="329" width="533" height="138" fill="#D9D9D9"/>
<rect x="938" y="477" width="533" height="139" fill="#D9D9D9"/>
<rect x="938" y="626" width="533" height="138" fill="#D9D9D9"/>
<rect x="938" y="774" width="533" height="139" fill="#D9D9D9"/>
<rect x="938" y="923" width="533" height="138" fill="#D9D9D9"/>
<rect x="1483" y="329" width="545" height="732" fill="#D9D9D9"/>
<rect x="1780" y="39" width="248" height="102" fill="#D9D9D9"/>
<path d="M966.786 1136C966.411 1134.85 965.917 1133.82 965.303 1132.91C964.701 1131.99 963.979 1131.21 963.138 1130.56C962.309 1129.91 961.366 1129.42 960.309 1129.08C959.252 1128.74 958.093 1128.57 956.832 1128.57C954.763 1128.57 952.883 1129.1 951.19 1130.17C949.496 1131.24 948.15 1132.81 947.15 1134.89C946.15 1136.97 945.65 1139.52 945.65 1142.55C945.65 1145.57 946.156 1148.12 947.167 1150.2C948.178 1152.28 949.548 1153.85 951.275 1154.92C953.002 1155.99 954.945 1156.52 957.104 1156.52C959.104 1156.52 960.866 1156.1 962.388 1155.24C963.923 1154.38 965.116 1153.16 965.968 1151.6C966.832 1150.02 967.263 1148.16 967.263 1146.02L968.559 1146.3H958.059V1142.55H971.354V1146.3C971.354 1149.17 970.741 1151.67 969.513 1153.8C968.298 1155.92 966.616 1157.57 964.468 1158.74C962.332 1159.9 959.877 1160.48 957.104 1160.48C954.013 1160.48 951.298 1159.75 948.957 1158.3C946.627 1156.84 944.809 1154.77 943.502 1152.09C942.207 1149.41 941.559 1146.23 941.559 1142.55C941.559 1139.78 941.928 1137.3 942.667 1135.1C943.417 1132.88 944.474 1130.99 945.837 1129.44C947.201 1127.88 948.815 1126.69 950.678 1125.86C952.542 1125.03 954.593 1124.61 956.832 1124.61C958.673 1124.61 960.388 1124.89 961.979 1125.45C963.582 1125.99 965.008 1126.77 966.258 1127.78C967.519 1128.78 968.57 1129.98 969.411 1131.38C970.252 1132.77 970.832 1134.31 971.15 1136H966.786ZM978.594 1160V1125.09H990.39C993.117 1125.09 995.356 1125.56 997.106 1126.49C998.856 1127.41 1000.15 1128.68 1000.99 1130.29C1001.83 1131.9 1002.25 1133.74 1002.25 1135.8C1002.25 1137.85 1001.83 1139.68 1000.99 1141.27C1000.15 1142.86 998.862 1144.11 997.123 1145.02C995.384 1145.91 993.163 1146.36 990.458 1146.36H980.913V1142.55H990.322C992.185 1142.55 993.685 1142.27 994.822 1141.73C995.969 1141.18 996.799 1140.41 997.31 1139.41C997.833 1138.4 998.094 1137.19 998.094 1135.8C998.094 1134.4 997.833 1133.18 997.31 1132.13C996.788 1131.09 995.952 1130.28 994.805 1129.71C993.657 1129.13 992.14 1128.84 990.254 1128.84H982.822V1160H978.594ZM995.026 1144.32L1003.62 1160H998.708L990.254 1144.32H995.026ZM1013.52 1125.09V1160H1009.3V1125.09H1013.52ZM1032.77 1160H1022V1125.09H1033.25C1036.64 1125.09 1039.53 1125.79 1041.94 1127.19C1044.35 1128.57 1046.2 1130.57 1047.48 1133.17C1048.77 1135.76 1049.41 1138.86 1049.41 1142.48C1049.41 1146.11 1048.76 1149.24 1047.47 1151.87C1046.17 1154.48 1044.28 1156.49 1041.81 1157.9C1039.33 1159.3 1036.32 1160 1032.77 1160ZM1026.23 1156.25H1032.5C1035.39 1156.25 1037.78 1155.69 1039.68 1154.58C1041.57 1153.47 1042.99 1151.88 1043.92 1149.82C1044.85 1147.77 1045.32 1145.32 1045.32 1142.48C1045.32 1139.66 1044.86 1137.23 1043.94 1135.2C1043.02 1133.15 1041.64 1131.59 1039.81 1130.49C1037.98 1129.39 1035.71 1128.84 1032.98 1128.84H1026.23V1156.25ZM1070 1160V1125.09H1074.23V1156.25H1090.46V1160H1070ZM1101.23 1125.09V1160H1097V1125.09H1101.23ZM1137.39 1125.09V1160H1133.29L1114.27 1132.59H1113.93V1160H1109.7V1125.09H1113.79L1132.89 1152.57H1133.23V1125.09H1137.39ZM1145.84 1160V1125.09H1166.91V1128.84H1150.07V1140.64H1165.82V1144.39H1150.07V1156.25H1167.19V1160H1145.84Z" fill="black"/>
<path d="M1101.03 386.091H1106.08L1117.94 415.068H1118.35L1130.21 386.091H1135.26V421H1131.3V394.477H1130.96L1120.05 421H1116.24L1105.33 394.477H1104.99V421H1101.03V386.091ZM1173.19 403.545C1173.19 407.227 1172.52 410.409 1171.2 413.091C1169.87 415.773 1168.04 417.841 1165.72 419.295C1163.41 420.75 1160.76 421.477 1157.78 421.477C1154.8 421.477 1152.16 420.75 1149.84 419.295C1147.52 417.841 1145.7 415.773 1144.37 413.091C1143.04 410.409 1142.37 407.227 1142.37 403.545C1142.37 399.864 1143.04 396.682 1144.37 394C1145.7 391.318 1147.52 389.25 1149.84 387.795C1152.16 386.341 1154.8 385.614 1157.78 385.614C1160.76 385.614 1163.41 386.341 1165.72 387.795C1168.04 389.25 1169.87 391.318 1171.2 394C1172.52 396.682 1173.19 399.864 1173.19 403.545ZM1169.1 403.545C1169.1 400.523 1168.59 397.972 1167.58 395.892C1166.58 393.812 1165.22 392.239 1163.51 391.17C1161.8 390.102 1159.89 389.568 1157.78 389.568C1155.67 389.568 1153.75 390.102 1152.04 391.17C1150.33 392.239 1148.97 393.812 1147.96 395.892C1146.96 397.972 1146.46 400.523 1146.46 403.545C1146.46 406.568 1146.96 409.119 1147.96 411.199C1148.97 413.278 1150.33 414.852 1152.04 415.92C1153.75 416.989 1155.67 417.523 1157.78 417.523C1159.89 417.523 1161.8 416.989 1163.51 415.92C1165.22 414.852 1166.58 413.278 1167.58 411.199C1168.59 409.119 1169.1 406.568 1169.1 403.545ZM1191.07 421H1180.3V386.091H1191.55C1194.93 386.091 1197.83 386.79 1200.24 388.188C1202.65 389.574 1204.5 391.568 1205.78 394.17C1207.06 396.761 1207.71 399.864 1207.71 403.477C1207.71 407.114 1207.06 410.244 1205.76 412.869C1204.47 415.483 1202.58 417.494 1200.1 418.903C1197.63 420.301 1194.62 421 1191.07 421ZM1184.52 417.25H1190.8C1193.68 417.25 1196.08 416.693 1197.97 415.58C1199.87 414.466 1201.29 412.881 1202.22 410.824C1203.15 408.767 1203.62 406.318 1203.62 403.477C1203.62 400.659 1203.16 398.233 1202.24 396.199C1201.31 394.153 1199.94 392.585 1198.11 391.494C1196.28 390.392 1194 389.841 1191.27 389.841H1184.52V417.25ZM1214.8 421V386.091H1235.87V389.841H1219.02V401.636H1234.77V405.386H1219.02V417.25H1236.14V421H1214.8ZM1243.49 421V386.091H1247.71V417.25H1263.94V421H1243.49ZM1285.42 421H1280.99L1293.8 386.091H1298.17L1310.99 421H1306.55L1296.12 391.614H1295.85L1285.42 421ZM1287.05 407.364H1304.92V411.114H1287.05V407.364Z" fill="black"/>
<path d="M147.602 242V207.091H159.807C162.239 207.091 164.244 207.511 165.824 208.352C167.403 209.182 168.58 210.301 169.352 211.71C170.125 213.108 170.511 214.659 170.511 216.364C170.511 217.864 170.244 219.102 169.71 220.08C169.188 221.057 168.494 221.83 167.631 222.398C166.778 222.966 165.852 223.386 164.852 223.659V224C165.92 224.068 166.994 224.443 168.074 225.125C169.153 225.807 170.057 226.784 170.784 228.057C171.511 229.33 171.875 230.886 171.875 232.727C171.875 234.477 171.477 236.051 170.682 237.449C169.886 238.847 168.631 239.955 166.915 240.773C165.199 241.591 162.966 242 160.216 242H147.602ZM151.83 238.25H160.216C162.977 238.25 164.938 237.716 166.097 236.648C167.267 235.568 167.852 234.261 167.852 232.727C167.852 231.545 167.551 230.455 166.949 229.455C166.347 228.443 165.489 227.636 164.375 227.034C163.261 226.42 161.943 226.114 160.42 226.114H151.83V238.25ZM151.83 222.432H159.67C160.943 222.432 162.091 222.182 163.114 221.682C164.148 221.182 164.966 220.477 165.568 219.568C166.182 218.659 166.489 217.591 166.489 216.364C166.489 214.83 165.955 213.528 164.886 212.46C163.818 211.381 162.125 210.841 159.807 210.841H151.83V222.432ZM180.253 242H175.821L188.639 207.091H193.003L205.821 242H201.389L190.957 212.614H190.685L180.253 242ZM181.889 228.364H199.753V232.114H181.889V228.364ZM237.709 218H233.482C233.232 216.784 232.794 215.716 232.169 214.795C231.555 213.875 230.805 213.102 229.919 212.477C229.044 211.841 228.072 211.364 227.004 211.045C225.936 210.727 224.822 210.568 223.663 210.568C221.55 210.568 219.635 211.102 217.919 212.17C216.214 213.239 214.857 214.812 213.845 216.892C212.845 218.972 212.345 221.523 212.345 224.545C212.345 227.568 212.845 230.119 213.845 232.199C214.857 234.278 216.214 235.852 217.919 236.92C219.635 237.989 221.55 238.523 223.663 238.523C224.822 238.523 225.936 238.364 227.004 238.045C228.072 237.727 229.044 237.256 229.919 236.631C230.805 235.994 231.555 235.216 232.169 234.295C232.794 233.364 233.232 232.295 233.482 231.091H237.709C237.391 232.875 236.811 234.472 235.97 235.881C235.129 237.29 234.084 238.489 232.834 239.477C231.584 240.455 230.18 241.199 228.624 241.71C227.078 242.222 225.425 242.477 223.663 242.477C220.686 242.477 218.038 241.75 215.72 240.295C213.402 238.841 211.578 236.773 210.249 234.091C208.919 231.409 208.254 228.227 208.254 224.545C208.254 220.864 208.919 217.682 210.249 215C211.578 212.318 213.402 210.25 215.72 208.795C218.038 207.341 220.686 206.614 223.663 206.614C225.425 206.614 227.078 206.869 228.624 207.381C230.18 207.892 231.584 208.642 232.834 209.631C234.084 210.608 235.129 211.801 235.97 213.21C236.811 214.608 237.391 216.205 237.709 218ZM244.54 242V207.091H248.767V224.409H249.176L264.858 207.091H270.381L255.722 222.841L270.381 242H265.267L253.131 225.773L248.767 230.682V242H244.54Z" fill="black"/>
<path d="M1605.91 489.091H1610.96L1622.82 518.068H1623.23L1635.1 489.091H1640.14V524H1636.19V497.477H1635.85L1624.94 524H1621.12L1610.21 497.477H1609.87V524H1605.91V489.091ZM1678.07 506.545C1678.07 510.227 1677.41 513.409 1676.08 516.091C1674.75 518.773 1672.92 520.841 1670.61 522.295C1668.29 523.75 1665.64 524.477 1662.66 524.477C1659.69 524.477 1657.04 523.75 1654.72 522.295C1652.4 520.841 1650.58 518.773 1649.25 516.091C1647.92 513.409 1647.25 510.227 1647.25 506.545C1647.25 502.864 1647.92 499.682 1649.25 497C1650.58 494.318 1652.4 492.25 1654.72 490.795C1657.04 489.341 1659.69 488.614 1662.66 488.614C1665.64 488.614 1668.29 489.341 1670.61 490.795C1672.92 492.25 1674.75 494.318 1676.08 497C1677.41 499.682 1678.07 502.864 1678.07 506.545ZM1673.98 506.545C1673.98 503.523 1673.48 500.972 1672.46 498.892C1671.46 496.812 1670.11 495.239 1668.39 494.17C1666.69 493.102 1664.78 492.568 1662.66 492.568C1660.55 492.568 1658.63 493.102 1656.92 494.17C1655.21 495.239 1653.86 496.812 1652.85 498.892C1651.85 500.972 1651.35 503.523 1651.35 506.545C1651.35 509.568 1651.85 512.119 1652.85 514.199C1653.86 516.278 1655.21 517.852 1656.92 518.92C1658.63 519.989 1660.55 520.523 1662.66 520.523C1664.78 520.523 1666.69 519.989 1668.39 518.92C1670.11 517.852 1671.46 516.278 1672.46 514.199C1673.48 512.119 1673.98 509.568 1673.98 506.545ZM1695.95 524H1685.18V489.091H1696.43C1699.82 489.091 1702.71 489.79 1705.12 491.188C1707.53 492.574 1709.38 494.568 1710.66 497.17C1711.95 499.761 1712.59 502.864 1712.59 506.477C1712.59 510.114 1711.94 513.244 1710.65 515.869C1709.35 518.483 1707.46 520.494 1704.99 521.903C1702.51 523.301 1699.5 524 1695.95 524ZM1689.41 520.25H1695.68C1698.57 520.25 1700.96 519.693 1702.86 518.58C1704.75 517.466 1706.17 515.881 1707.1 513.824C1708.03 511.767 1708.5 509.318 1708.5 506.477C1708.5 503.659 1708.04 501.233 1707.12 499.199C1706.2 497.153 1704.82 495.585 1702.99 494.494C1701.16 493.392 1698.88 492.841 1696.16 492.841H1689.41V520.25ZM1719.68 524V489.091H1740.75V492.841H1723.91V504.636H1739.66V508.386H1723.91V520.25H1741.02V524H1719.68ZM1748.37 524V489.091H1752.6V520.25H1768.82V524H1748.37ZM1787.16 487.455L1775.91 529.25H1772.23L1783.48 487.455H1787.16ZM1792.48 524V489.091H1813.55V492.841H1796.7V504.636H1812.45V508.386H1796.7V520.25H1813.82V524H1792.48ZM1822.6 489.091L1832.96 518.477H1833.37L1843.73 489.091H1848.16L1835.35 524H1830.98L1818.16 489.091H1822.6ZM1853.6 524V489.091H1874.67V492.841H1857.83V504.636H1873.58V508.386H1857.83V520.25H1874.94V524H1853.6ZM1909.97 489.091V524H1905.88L1886.86 496.591H1886.52V524H1882.29V489.091H1886.38L1905.47 516.568H1905.81V489.091H1909.97ZM1916.52 492.841V489.091H1942.7V492.841H1931.73V524H1927.5V492.841H1916.52ZM1957.23 487.455L1945.98 529.25H1942.29L1953.54 487.455H1957.23ZM1611.33 582V547.091H1615.56V578.25H1631.78V582H1611.33ZM1638.33 582V547.091H1659.4V550.841H1642.56V562.636H1658.31V566.386H1642.56V578.25H1659.67V582H1638.33ZM1668.45 582H1664.02L1676.83 547.091H1681.2L1694.02 582H1689.58L1679.15 552.614H1678.88L1668.45 582ZM1670.08 568.364H1687.95V572.114H1670.08V568.364ZM1710.23 582H1699.45V547.091H1710.7C1714.09 547.091 1716.99 547.79 1719.4 549.188C1721.81 550.574 1723.65 552.568 1724.94 555.17C1726.22 557.761 1726.86 560.864 1726.86 564.477C1726.86 568.114 1726.22 571.244 1724.92 573.869C1723.62 576.483 1721.74 578.494 1719.26 579.903C1716.78 581.301 1713.77 582 1710.23 582ZM1703.68 578.25H1709.95C1712.84 578.25 1715.23 577.693 1717.13 576.58C1719.03 575.466 1720.44 573.881 1721.37 571.824C1722.31 569.767 1722.77 567.318 1722.77 564.477C1722.77 561.659 1722.31 559.233 1721.39 557.199C1720.47 555.153 1719.1 553.585 1717.27 552.494C1715.44 551.392 1713.16 550.841 1710.43 550.841H1703.68V578.25ZM1733.95 582V547.091H1755.02V550.841H1738.18V562.636H1753.93V566.386H1738.18V578.25H1755.29V582H1733.95ZM1762.64 582V547.091H1774.44C1777.16 547.091 1779.4 547.557 1781.15 548.489C1782.9 549.409 1784.2 550.676 1785.04 552.29C1785.88 553.903 1786.3 555.739 1786.3 557.795C1786.3 559.852 1785.88 561.676 1785.04 563.267C1784.2 564.858 1782.91 566.108 1781.17 567.017C1779.43 567.915 1777.21 568.364 1774.5 568.364H1764.96V564.545H1774.37C1776.23 564.545 1777.73 564.273 1778.87 563.727C1780.02 563.182 1780.85 562.409 1781.36 561.409C1781.88 560.398 1782.14 559.193 1782.14 557.795C1782.14 556.398 1781.88 555.176 1781.36 554.131C1780.83 553.085 1780 552.278 1778.85 551.71C1777.7 551.131 1776.19 550.841 1774.3 550.841H1766.87V582H1762.64ZM1779.07 566.318L1787.66 582H1782.75L1774.3 566.318H1779.07ZM1793.34 582V547.091H1805.55C1807.98 547.091 1809.99 547.511 1811.57 548.352C1813.15 549.182 1814.32 550.301 1815.09 551.71C1815.87 553.108 1816.25 554.659 1816.25 556.364C1816.25 557.864 1815.99 559.102 1815.45 560.08C1814.93 561.057 1814.24 561.83 1813.37 562.398C1812.52 562.966 1811.59 563.386 1810.59 563.659V564C1811.66 564.068 1812.74 564.443 1813.82 565.125C1814.9 565.807 1815.8 566.784 1816.53 568.057C1817.25 569.33 1817.62 570.886 1817.62 572.727C1817.62 574.477 1817.22 576.051 1816.42 577.449C1815.63 578.847 1814.37 579.955 1812.66 580.773C1810.94 581.591 1808.71 582 1805.96 582H1793.34ZM1797.57 578.25H1805.96C1808.72 578.25 1810.68 577.716 1811.84 576.648C1813.01 575.568 1813.59 574.261 1813.59 572.727C1813.59 571.545 1813.29 570.455 1812.69 569.455C1812.09 568.443 1811.23 567.636 1810.12 567.034C1809 566.42 1807.69 566.114 1806.16 566.114H1797.57V578.25ZM1797.57 562.432H1805.41C1806.69 562.432 1807.83 562.182 1808.86 561.682C1809.89 561.182 1810.71 560.477 1811.31 559.568C1811.92 558.659 1812.23 557.591 1812.23 556.364C1812.23 554.83 1811.7 553.528 1810.63 552.46C1809.56 551.381 1807.87 550.841 1805.55 550.841H1797.57V562.432ZM1854.02 564.545C1854.02 568.227 1853.35 571.409 1852.02 574.091C1850.69 576.773 1848.87 578.841 1846.55 580.295C1844.23 581.75 1841.59 582.477 1838.61 582.477C1835.63 582.477 1832.98 581.75 1830.67 580.295C1828.35 578.841 1826.52 576.773 1825.19 574.091C1823.86 571.409 1823.2 568.227 1823.2 564.545C1823.2 560.864 1823.86 557.682 1825.19 555C1826.52 552.318 1828.35 550.25 1830.67 548.795C1832.98 547.341 1835.63 546.614 1838.61 546.614C1841.59 546.614 1844.23 547.341 1846.55 548.795C1848.87 550.25 1850.69 552.318 1852.02 555C1853.35 557.682 1854.02 560.864 1854.02 564.545ZM1849.93 564.545C1849.93 561.523 1849.42 558.972 1848.41 556.892C1847.41 554.812 1846.05 553.239 1844.34 552.17C1842.63 551.102 1840.72 550.568 1838.61 550.568C1836.5 550.568 1834.58 551.102 1832.86 552.17C1831.16 553.239 1829.8 554.812 1828.79 556.892C1827.79 558.972 1827.29 561.523 1827.29 564.545C1827.29 567.568 1827.79 570.119 1828.79 572.199C1829.8 574.278 1831.16 575.852 1832.86 576.92C1834.58 577.989 1836.5 578.523 1838.61 578.523C1840.72 578.523 1842.63 577.989 1844.34 576.92C1846.05 575.852 1847.41 574.278 1848.41 572.199C1849.42 570.119 1849.93 567.568 1849.93 564.545ZM1860.92 582H1856.49L1869.3 547.091H1873.67L1886.49 582H1882.05L1871.62 552.614H1871.35L1860.92 582ZM1862.55 568.364H1880.42V572.114H1862.55V568.364ZM1891.92 582V547.091H1903.72C1906.45 547.091 1908.68 547.557 1910.43 548.489C1912.18 549.409 1913.48 550.676 1914.32 552.29C1915.16 553.903 1915.58 555.739 1915.58 557.795C1915.58 559.852 1915.16 561.676 1914.32 563.267C1913.48 564.858 1912.19 566.108 1910.45 567.017C1908.71 567.915 1906.49 568.364 1903.79 568.364H1894.24V564.545H1903.65C1905.51 564.545 1907.01 564.273 1908.15 563.727C1909.3 563.182 1910.13 562.409 1910.64 561.409C1911.16 560.398 1911.42 559.193 1911.42 557.795C1911.42 556.398 1911.16 555.176 1910.64 554.131C1910.12 553.085 1909.28 552.278 1908.13 551.71C1906.99 551.131 1905.47 550.841 1903.58 550.841H1896.15V582H1891.92ZM1908.35 566.318L1916.95 582H1912.04L1903.58 566.318H1908.35ZM1933.4 582H1922.63V547.091H1933.88C1937.26 547.091 1940.16 547.79 1942.57 549.188C1944.98 550.574 1946.82 552.568 1948.11 555.17C1949.39 557.761 1950.03 560.864 1950.03 564.477C1950.03 568.114 1949.39 571.244 1948.09 573.869C1946.8 576.483 1944.91 578.494 1942.43 579.903C1939.96 581.301 1936.94 582 1933.4 582ZM1926.85 578.25H1933.13C1936.01 578.25 1938.4 577.693 1940.3 576.58C1942.2 575.466 1943.61 573.881 1944.55 571.824C1945.48 569.767 1945.94 567.318 1945.94 564.477C1945.94 561.659 1945.48 559.233 1944.56 557.199C1943.64 555.153 1942.27 553.585 1940.44 552.494C1938.61 551.392 1936.33 550.841 1933.6 550.841H1926.85V578.25ZM1778.22 640.477C1775.92 640.477 1773.94 640.057 1772.28 639.216C1770.63 638.375 1769.35 637.222 1768.45 635.756C1767.55 634.29 1767.1 632.614 1767.1 630.727C1767.1 629.273 1767.41 627.983 1768.02 626.858C1768.65 625.722 1769.51 624.67 1770.6 623.705C1771.7 622.727 1772.97 621.75 1774.4 620.773L1779.44 617.023C1780.43 616.375 1781.22 615.682 1781.81 614.943C1782.42 614.205 1782.72 613.239 1782.72 612.045C1782.72 611.159 1782.32 610.301 1781.54 609.472C1780.77 608.642 1779.75 608.227 1778.49 608.227C1777.6 608.227 1776.82 608.455 1776.14 608.909C1775.47 609.352 1774.94 609.92 1774.55 610.614C1774.18 611.295 1773.99 612 1773.99 612.727C1773.99 613.545 1774.21 614.375 1774.65 615.216C1775.11 616.045 1775.68 616.898 1776.38 617.773C1777.08 618.636 1777.81 619.523 1778.56 620.432L1794.58 640H1789.74L1776.51 624.045C1775.28 622.568 1774.17 621.227 1773.17 620.023C1772.17 618.818 1771.38 617.631 1770.78 616.46C1770.19 615.29 1769.9 614.023 1769.9 612.659C1769.9 611.091 1770.25 609.716 1770.94 608.534C1771.64 607.341 1772.63 606.415 1773.89 605.756C1775.16 605.085 1776.65 604.75 1778.35 604.75C1780.1 604.75 1781.61 605.091 1782.87 605.773C1784.13 606.443 1785.1 607.335 1785.78 608.449C1786.47 609.551 1786.81 610.75 1786.81 612.045C1786.81 613.716 1786.39 615.165 1785.56 616.392C1784.73 617.619 1783.6 618.761 1782.17 619.818L1775.22 625C1773.65 626.159 1772.59 627.284 1772.03 628.375C1771.47 629.466 1771.19 630.25 1771.19 630.727C1771.19 631.818 1771.48 632.835 1772.05 633.778C1772.61 634.722 1773.42 635.483 1774.45 636.062C1775.48 636.642 1776.69 636.932 1778.08 636.932C1779.4 636.932 1780.68 636.653 1781.93 636.097C1783.18 635.528 1784.31 634.71 1785.32 633.642C1786.35 632.574 1787.15 631.29 1787.75 629.79C1788.35 628.29 1788.65 626.602 1788.65 624.727H1792.53C1792.53 627.045 1792.27 628.937 1791.73 630.403C1791.2 631.869 1790.6 633.017 1789.93 633.847C1789.26 634.676 1788.72 635.295 1788.31 635.705C1788.17 635.875 1788.05 636.045 1787.93 636.216C1787.82 636.386 1787.69 636.557 1787.56 636.727C1786.43 637.989 1785.01 638.932 1783.3 639.557C1781.58 640.17 1779.89 640.477 1778.22 640.477ZM1583.7 663.091V698H1579.48V663.091H1583.7ZM1592.18 698V663.091H1613.11V666.841H1596.41V678.636H1611.54V682.386H1596.41V698H1592.18ZM1656.76 663.091H1660.99V686.205C1660.99 688.591 1660.43 690.722 1659.3 692.597C1658.19 694.46 1656.61 695.932 1654.58 697.011C1652.55 698.08 1650.16 698.614 1647.42 698.614C1644.68 698.614 1642.3 698.08 1640.26 697.011C1638.23 695.932 1636.65 694.46 1635.52 692.597C1634.41 690.722 1633.85 688.591 1633.85 686.205V663.091H1638.08V685.864C1638.08 687.568 1638.45 689.085 1639.2 690.415C1639.95 691.733 1641.02 692.773 1642.41 693.534C1643.81 694.284 1645.48 694.659 1647.42 694.659C1649.36 694.659 1651.03 694.284 1652.43 693.534C1653.83 692.773 1654.9 691.733 1655.64 690.415C1656.39 689.085 1656.76 687.568 1656.76 685.864V663.091ZM1688.52 671.818C1688.32 670.091 1687.49 668.75 1686.03 667.795C1684.58 666.841 1682.79 666.364 1680.68 666.364C1679.13 666.364 1677.78 666.614 1676.62 667.114C1675.48 667.614 1674.58 668.301 1673.93 669.176C1673.29 670.051 1672.98 671.045 1672.98 672.159C1672.98 673.091 1673.2 673.892 1673.64 674.562C1674.1 675.222 1674.67 675.773 1675.38 676.216C1676.08 676.648 1676.82 677.006 1677.6 677.29C1678.37 677.562 1679.08 677.784 1679.73 677.955L1683.27 678.909C1684.18 679.148 1685.19 679.477 1686.31 679.898C1687.43 680.318 1688.5 680.892 1689.53 681.619C1690.56 682.335 1691.41 683.256 1692.08 684.381C1692.75 685.506 1693.09 686.886 1693.09 688.523C1693.09 690.409 1692.6 692.114 1691.61 693.636C1690.63 695.159 1689.2 696.369 1687.31 697.267C1685.44 698.165 1683.16 698.614 1680.48 698.614C1677.98 698.614 1675.81 698.21 1673.98 697.403C1672.16 696.597 1670.73 695.472 1669.69 694.028C1668.65 692.585 1668.07 690.909 1667.93 689H1672.29C1672.41 690.318 1672.85 691.409 1673.62 692.273C1674.41 693.125 1675.4 693.761 1676.59 694.182C1677.79 694.591 1679.09 694.795 1680.48 694.795C1682.09 694.795 1683.54 694.534 1684.82 694.011C1686.11 693.477 1687.12 692.739 1687.87 691.795C1688.62 690.841 1689 689.727 1689 688.455C1689 687.295 1688.67 686.352 1688.03 685.625C1687.38 684.898 1686.53 684.307 1685.47 683.852C1684.41 683.398 1683.27 683 1682.04 682.659L1677.75 681.432C1675.02 680.648 1672.86 679.528 1671.27 678.074C1669.68 676.619 1668.88 674.716 1668.88 672.364C1668.88 670.409 1669.41 668.705 1670.47 667.25C1671.54 665.784 1672.97 664.648 1674.77 663.841C1676.57 663.023 1678.59 662.614 1680.82 662.614C1683.07 662.614 1685.07 663.017 1686.82 663.824C1688.57 664.619 1689.95 665.71 1690.98 667.097C1692.01 668.483 1692.56 670.057 1692.61 671.818H1688.52ZM1700.04 698V663.091H1721.11V666.841H1704.27V678.636H1720.02V682.386H1704.27V694.25H1721.38V698H1700.04ZM1728.73 698V663.091H1740.52C1743.25 663.091 1745.49 663.557 1747.24 664.489C1748.99 665.409 1750.28 666.676 1751.12 668.29C1751.97 669.903 1752.39 671.739 1752.39 673.795C1752.39 675.852 1751.97 677.676 1751.12 679.267C1750.28 680.858 1748.99 682.108 1747.26 683.017C1745.52 683.915 1743.3 684.364 1740.59 684.364H1731.05V680.545H1740.45C1742.32 680.545 1743.82 680.273 1744.95 679.727C1746.1 679.182 1746.93 678.409 1747.44 677.409C1747.97 676.398 1748.23 675.193 1748.23 673.795C1748.23 672.398 1747.97 671.176 1747.44 670.131C1746.92 669.085 1746.09 668.278 1744.94 667.71C1743.79 667.131 1742.27 666.841 1740.39 666.841H1732.95V698H1728.73ZM1745.16 682.318L1753.75 698H1748.84L1740.39 682.318H1745.16ZM1774.36 698H1769.93L1782.75 663.091H1787.11L1799.93 698H1795.5L1785.07 668.614H1784.79L1774.36 698ZM1776 684.364H1793.86V688.114H1776V684.364ZM1805.37 698V663.091H1809.6V694.25H1825.82V698H1805.37ZM1832.37 698V663.091H1844.16C1846.89 663.091 1849.13 663.557 1850.88 664.489C1852.63 665.409 1853.92 666.676 1854.77 668.29C1855.61 669.903 1856.03 671.739 1856.03 673.795C1856.03 675.852 1855.61 677.676 1854.77 679.267C1853.92 680.858 1852.63 682.108 1850.9 683.017C1849.16 683.915 1846.94 684.364 1844.23 684.364H1834.69V680.545H1844.1C1845.96 680.545 1847.46 680.273 1848.6 679.727C1849.74 679.182 1850.57 678.409 1851.08 677.409C1851.61 676.398 1851.87 675.193 1851.87 673.795C1851.87 672.398 1851.61 671.176 1851.08 670.131C1850.56 669.085 1849.73 668.278 1848.58 667.71C1847.43 667.131 1845.91 666.841 1844.03 666.841H1836.6V698H1832.37ZM1848.8 682.318L1857.39 698H1852.48L1844.03 682.318H1848.8ZM1863.07 698V663.091H1884.14V666.841H1867.3V678.636H1883.05V682.386H1867.3V694.25H1884.41V698H1863.07ZM1893.19 698H1888.76L1901.58 663.091H1905.94L1918.76 698H1914.33L1903.89 668.614H1903.62L1893.19 698ZM1894.83 684.364H1912.69V688.114H1894.83V684.364ZM1934.97 698H1924.2V663.091H1935.45C1938.83 663.091 1941.73 663.79 1944.14 665.188C1946.55 666.574 1948.39 668.568 1949.68 671.17C1950.96 673.761 1951.61 676.864 1951.61 680.477C1951.61 684.114 1950.96 687.244 1949.66 689.869C1948.37 692.483 1946.48 694.494 1944 695.903C1941.53 697.301 1938.51 698 1934.97 698ZM1928.42 694.25H1934.7C1937.58 694.25 1939.97 693.693 1941.87 692.58C1943.77 691.466 1945.18 689.881 1946.12 687.824C1947.05 685.767 1947.51 683.318 1947.51 680.477C1947.51 677.659 1947.05 675.233 1946.13 673.199C1945.21 671.153 1943.84 669.585 1942.01 668.494C1940.18 667.392 1937.9 666.841 1935.17 666.841H1928.42V694.25ZM1954.06 663.091H1958.9L1968.58 679.386H1968.99L1978.67 663.091H1983.51L1970.9 683.614V698H1966.67V683.614L1954.06 663.091ZM1650.37 756H1639.59V721.091H1650.84C1654.23 721.091 1657.13 721.79 1659.54 723.188C1661.95 724.574 1663.79 726.568 1665.08 729.17C1666.36 731.761 1667 734.864 1667 738.477C1667 742.114 1666.36 745.244 1665.06 747.869C1663.76 750.483 1661.88 752.494 1659.4 753.903C1656.92 755.301 1653.91 756 1650.37 756ZM1643.82 752.25H1650.09C1652.98 752.25 1655.37 751.693 1657.27 750.58C1659.17 749.466 1660.58 747.881 1661.51 745.824C1662.45 743.767 1662.91 741.318 1662.91 738.477C1662.91 735.659 1662.45 733.233 1661.53 731.199C1660.61 729.153 1659.24 727.585 1657.41 726.494C1655.58 725.392 1653.3 724.841 1650.57 724.841H1643.82V752.25ZM1674.09 756V721.091H1695.16V724.841H1678.32V736.636H1694.07V740.386H1678.32V752.25H1695.44V756H1674.09ZM1730.87 732H1726.65C1726.4 730.784 1725.96 729.716 1725.33 728.795C1724.72 727.875 1723.97 727.102 1723.08 726.477C1722.21 725.841 1721.24 725.364 1720.17 725.045C1719.1 724.727 1717.99 724.568 1716.83 724.568C1714.71 724.568 1712.8 725.102 1711.08 726.17C1709.38 727.239 1708.02 728.812 1707.01 730.892C1706.01 732.972 1705.51 735.523 1705.51 738.545C1705.51 741.568 1706.01 744.119 1707.01 746.199C1708.02 748.278 1709.38 749.852 1711.08 750.92C1712.8 751.989 1714.71 752.523 1716.83 752.523C1717.99 752.523 1719.1 752.364 1720.17 752.045C1721.24 751.727 1722.21 751.256 1723.08 750.631C1723.97 749.994 1724.72 749.216 1725.33 748.295C1725.96 747.364 1726.4 746.295 1726.65 745.091H1730.87C1730.55 746.875 1729.98 748.472 1729.13 749.881C1728.29 751.29 1727.25 752.489 1726 753.477C1724.75 754.455 1723.34 755.199 1721.79 755.71C1720.24 756.222 1718.59 756.477 1716.83 756.477C1713.85 756.477 1711.2 755.75 1708.88 754.295C1706.57 752.841 1704.74 750.773 1703.41 748.091C1702.08 745.409 1701.42 742.227 1701.42 738.545C1701.42 734.864 1702.08 731.682 1703.41 729C1704.74 726.318 1706.57 724.25 1708.88 722.795C1711.2 721.341 1713.85 720.614 1716.83 720.614C1718.59 720.614 1720.24 720.869 1721.79 721.381C1723.34 721.892 1724.75 722.642 1726 723.631C1727.25 724.608 1728.29 725.801 1729.13 727.21C1729.98 728.608 1730.55 730.205 1730.87 732ZM1741.93 721.091V756H1737.7V721.091H1741.93ZM1761.18 756H1750.41V721.091H1761.66C1765.04 721.091 1767.94 721.79 1770.35 723.188C1772.76 724.574 1774.61 726.568 1775.89 729.17C1777.17 731.761 1777.82 734.864 1777.82 738.477C1777.82 742.114 1777.17 745.244 1775.87 747.869C1774.58 750.483 1772.69 752.494 1770.21 753.903C1767.74 755.301 1764.73 756 1761.18 756ZM1754.63 752.25H1760.91C1763.79 752.25 1766.19 751.693 1768.08 750.58C1769.98 749.466 1771.4 747.881 1772.33 745.824C1773.26 743.767 1773.73 741.318 1773.73 738.477C1773.73 735.659 1773.26 733.233 1772.34 731.199C1771.42 729.153 1770.05 727.585 1768.22 726.494C1766.39 725.392 1764.11 724.841 1761.38 724.841H1754.63V752.25ZM1784.91 756V721.091H1805.98V724.841H1789.13V736.636H1804.88V740.386H1789.13V752.25H1806.25V756H1784.91ZM1824.37 756H1813.59V721.091H1824.84C1828.23 721.091 1831.13 721.79 1833.54 723.188C1835.95 724.574 1837.79 726.568 1839.08 729.17C1840.36 731.761 1841 734.864 1841 738.477C1841 742.114 1840.36 745.244 1839.06 747.869C1837.76 750.483 1835.88 752.494 1833.4 753.903C1830.92 755.301 1827.91 756 1824.37 756ZM1817.82 752.25H1824.09C1826.98 752.25 1829.37 751.693 1831.27 750.58C1833.17 749.466 1834.58 747.881 1835.51 745.824C1836.45 743.767 1836.91 741.318 1836.91 738.477C1836.91 735.659 1836.45 733.233 1835.53 731.199C1834.61 729.153 1833.24 727.585 1831.41 726.494C1829.58 725.392 1827.3 724.841 1824.57 724.841H1817.82V752.25ZM1891.05 738.545C1891.05 742.227 1890.38 745.409 1889.05 748.091C1887.73 750.773 1885.9 752.841 1883.58 754.295C1881.26 755.75 1878.62 756.477 1875.64 756.477C1872.66 756.477 1870.01 755.75 1867.7 754.295C1865.38 752.841 1863.55 750.773 1862.23 748.091C1860.9 745.409 1860.23 742.227 1860.23 738.545C1860.23 734.864 1860.9 731.682 1862.23 729C1863.55 726.318 1865.38 724.25 1867.7 722.795C1870.01 721.341 1872.66 720.614 1875.64 720.614C1878.62 720.614 1881.26 721.341 1883.58 722.795C1885.9 724.25 1887.73 726.318 1889.05 729C1890.38 731.682 1891.05 734.864 1891.05 738.545ZM1886.96 738.545C1886.96 735.523 1886.45 732.972 1885.44 730.892C1884.44 728.812 1883.08 727.239 1881.37 726.17C1879.66 725.102 1877.75 724.568 1875.64 724.568C1873.53 724.568 1871.61 725.102 1869.9 726.17C1868.19 727.239 1866.83 728.812 1865.82 730.892C1864.82 732.972 1864.32 735.523 1864.32 738.545C1864.32 741.568 1864.82 744.119 1865.82 746.199C1866.83 748.278 1868.19 749.852 1869.9 750.92C1871.61 751.989 1873.53 752.523 1875.64 752.523C1877.75 752.523 1879.66 751.989 1881.37 750.92C1883.08 749.852 1884.44 748.278 1885.44 746.199C1886.45 744.119 1886.96 741.568 1886.96 738.545ZM1898.16 756V721.091H1909.95C1912.68 721.091 1914.92 721.557 1916.67 722.489C1918.42 723.409 1919.71 724.676 1920.55 726.29C1921.4 727.903 1921.82 729.739 1921.82 731.795C1921.82 733.852 1921.4 735.676 1920.55 737.267C1919.71 738.858 1918.42 740.108 1916.69 741.017C1914.95 741.915 1912.73 742.364 1910.02 742.364H1900.48V738.545H1909.88C1911.75 738.545 1913.25 738.273 1914.38 737.727C1915.53 737.182 1916.36 736.409 1916.87 735.409C1917.4 734.398 1917.66 733.193 1917.66 731.795C1917.66 730.398 1917.4 729.176 1916.87 728.131C1916.35 727.085 1915.51 726.278 1914.37 725.71C1913.22 725.131 1911.7 724.841 1909.82 724.841H1902.38V756H1898.16ZM1914.59 740.318L1923.18 756H1918.27L1909.82 740.318H1914.59ZM1682.84 814V779.091H1694.63C1697.37 779.091 1699.61 779.585 1701.35 780.574C1703.1 781.551 1704.39 782.875 1705.23 784.545C1706.08 786.216 1706.5 788.08 1706.5 790.136C1706.5 792.193 1706.08 794.062 1705.23 795.744C1704.4 797.426 1703.12 798.767 1701.38 799.767C1699.64 800.756 1697.42 801.25 1694.7 801.25H1686.25V797.5H1694.56C1696.44 797.5 1697.94 797.176 1699.08 796.528C1700.22 795.881 1701.04 795.006 1701.55 793.903C1702.08 792.79 1702.34 791.534 1702.34 790.136C1702.34 788.739 1702.08 787.489 1701.55 786.386C1701.04 785.284 1700.21 784.42 1699.06 783.795C1697.92 783.159 1696.39 782.841 1694.5 782.841H1687.06V814H1682.84ZM1713.31 814V779.091H1725.1C1727.83 779.091 1730.07 779.557 1731.82 780.489C1733.57 781.409 1734.86 782.676 1735.7 784.29C1736.54 785.903 1736.96 787.739 1736.96 789.795C1736.96 791.852 1736.54 793.676 1735.7 795.267C1734.86 796.858 1733.57 798.108 1731.83 799.017C1730.1 799.915 1727.87 800.364 1725.17 800.364H1715.62V796.545H1725.03C1726.9 796.545 1728.4 796.273 1729.53 795.727C1730.68 795.182 1731.51 794.409 1732.02 793.409C1732.54 792.398 1732.81 791.193 1732.81 789.795C1732.81 788.398 1732.54 787.176 1732.02 786.131C1731.5 785.085 1730.66 784.278 1729.52 783.71C1728.37 783.131 1726.85 782.841 1724.96 782.841H1717.53V814H1713.31ZM1729.74 798.318L1738.33 814H1733.42L1724.96 798.318H1729.74ZM1744.01 814V779.091H1765.08V782.841H1748.24V794.636H1763.99V798.386H1748.24V810.25H1765.35V814H1744.01ZM1783.47 814H1772.7V779.091H1783.95C1787.33 779.091 1790.23 779.79 1792.64 781.188C1795.05 782.574 1796.89 784.568 1798.18 787.17C1799.46 789.761 1800.11 792.864 1800.11 796.477C1800.11 800.114 1799.46 803.244 1798.16 805.869C1796.87 808.483 1794.98 810.494 1792.5 811.903C1790.03 813.301 1787.01 814 1783.47 814ZM1776.92 810.25H1783.2C1786.08 810.25 1788.47 809.693 1790.37 808.58C1792.27 807.466 1793.68 805.881 1794.62 803.824C1795.55 801.767 1796.01 799.318 1796.01 796.477C1796.01 793.659 1795.55 791.233 1794.63 789.199C1793.71 787.153 1792.34 785.585 1790.51 784.494C1788.68 783.392 1786.4 782.841 1783.67 782.841H1776.92V810.25ZM1811.42 779.091V814H1807.2V779.091H1811.42ZM1847.99 790H1843.76C1843.51 788.784 1843.08 787.716 1842.45 786.795C1841.84 785.875 1841.09 785.102 1840.2 784.477C1839.33 783.841 1838.35 783.364 1837.29 783.045C1836.22 782.727 1835.1 782.568 1833.94 782.568C1831.83 782.568 1829.92 783.102 1828.2 784.17C1826.5 785.239 1825.14 786.812 1824.13 788.892C1823.13 790.972 1822.63 793.523 1822.63 796.545C1822.63 799.568 1823.13 802.119 1824.13 804.199C1825.14 806.278 1826.5 807.852 1828.2 808.92C1829.92 809.989 1831.83 810.523 1833.94 810.523C1835.1 810.523 1836.22 810.364 1837.29 810.045C1838.35 809.727 1839.33 809.256 1840.2 808.631C1841.09 807.994 1841.84 807.216 1842.45 806.295C1843.08 805.364 1843.51 804.295 1843.76 803.091H1847.99C1847.67 804.875 1847.09 806.472 1846.25 807.881C1845.41 809.29 1844.37 810.489 1843.12 811.477C1841.87 812.455 1840.46 813.199 1838.9 813.71C1837.36 814.222 1835.71 814.477 1833.94 814.477C1830.97 814.477 1828.32 813.75 1826 812.295C1823.68 810.841 1821.86 808.773 1820.53 806.091C1819.2 803.409 1818.54 800.227 1818.54 796.545C1818.54 792.864 1819.2 789.682 1820.53 787C1821.86 784.318 1823.68 782.25 1826 780.795C1828.32 779.341 1830.97 778.614 1833.94 778.614C1835.71 778.614 1837.36 778.869 1838.9 779.381C1840.46 779.892 1841.87 780.642 1843.12 781.631C1844.37 782.608 1845.41 783.801 1846.25 785.21C1847.09 786.608 1847.67 788.205 1847.99 790ZM1852.91 782.841V779.091H1879.09V782.841H1868.12V814H1863.89V782.841H1852.91ZM1632.13 845.818C1631.93 844.091 1631.1 842.75 1629.64 841.795C1628.19 840.841 1626.4 840.364 1624.29 840.364C1622.74 840.364 1621.39 840.614 1620.23 841.114C1619.09 841.614 1618.19 842.301 1617.54 843.176C1616.9 844.051 1616.59 845.045 1616.59 846.159C1616.59 847.091 1616.81 847.892 1617.25 848.562C1617.7 849.222 1618.28 849.773 1618.99 850.216C1619.69 850.648 1620.43 851.006 1621.2 851.29C1621.98 851.562 1622.69 851.784 1623.34 851.955L1626.88 852.909C1627.79 853.148 1628.8 853.477 1629.91 853.898C1631.04 854.318 1632.11 854.892 1633.14 855.619C1634.17 856.335 1635.02 857.256 1635.69 858.381C1636.36 859.506 1636.7 860.886 1636.7 862.523C1636.7 864.409 1636.2 866.114 1635.22 867.636C1634.24 869.159 1632.81 870.369 1630.92 871.267C1629.05 872.165 1626.77 872.614 1624.09 872.614C1621.59 872.614 1619.42 872.21 1617.59 871.403C1615.77 870.597 1614.34 869.472 1613.3 868.028C1612.26 866.585 1611.68 864.909 1611.54 863H1615.9C1616.02 864.318 1616.46 865.409 1617.23 866.273C1618.02 867.125 1619.01 867.761 1620.2 868.182C1621.4 868.591 1622.7 868.795 1624.09 868.795C1625.7 868.795 1627.15 868.534 1628.43 868.011C1629.72 867.477 1630.73 866.739 1631.48 865.795C1632.23 864.841 1632.61 863.727 1632.61 862.455C1632.61 861.295 1632.28 860.352 1631.64 859.625C1630.99 858.898 1630.14 858.307 1629.08 857.852C1628.02 857.398 1626.88 857 1625.65 856.659L1621.36 855.432C1618.63 854.648 1616.47 853.528 1614.88 852.074C1613.29 850.619 1612.49 848.716 1612.49 846.364C1612.49 844.409 1613.02 842.705 1614.08 841.25C1615.15 839.784 1616.58 838.648 1618.38 837.841C1620.18 837.023 1622.2 836.614 1624.43 836.614C1626.68 836.614 1628.68 837.017 1630.43 837.824C1632.18 838.619 1633.56 839.71 1634.59 841.097C1635.62 842.483 1636.16 844.057 1636.22 845.818H1632.13ZM1643.65 872V837.091H1647.88V852.636H1666.49V837.091H1670.72V872H1666.49V856.386H1647.88V872H1643.65ZM1708.63 854.545C1708.63 858.227 1707.97 861.409 1706.64 864.091C1705.31 866.773 1703.49 868.841 1701.17 870.295C1698.85 871.75 1696.2 872.477 1693.23 872.477C1690.25 872.477 1687.6 871.75 1685.28 870.295C1682.96 868.841 1681.14 866.773 1679.81 864.091C1678.48 861.409 1677.82 858.227 1677.82 854.545C1677.82 850.864 1678.48 847.682 1679.81 845C1681.14 842.318 1682.96 840.25 1685.28 838.795C1687.6 837.341 1690.25 836.614 1693.23 836.614C1696.2 836.614 1698.85 837.341 1701.17 838.795C1703.49 840.25 1705.31 842.318 1706.64 845C1707.97 847.682 1708.63 850.864 1708.63 854.545ZM1704.54 854.545C1704.54 851.523 1704.04 848.972 1703.03 846.892C1702.03 844.812 1700.67 843.239 1698.95 842.17C1697.25 841.102 1695.34 840.568 1693.23 840.568C1691.11 840.568 1689.2 841.102 1687.48 842.17C1685.78 843.239 1684.42 844.812 1683.41 846.892C1682.41 848.972 1681.91 851.523 1681.91 854.545C1681.91 857.568 1682.41 860.119 1683.41 862.199C1684.42 864.278 1685.78 865.852 1687.48 866.92C1689.2 867.989 1691.11 868.523 1693.23 868.523C1695.34 868.523 1697.25 867.989 1698.95 866.92C1700.67 865.852 1702.03 864.278 1703.03 862.199C1704.04 860.119 1704.54 857.568 1704.54 854.545ZM1722.08 872L1712.54 837.091H1716.83L1724.13 865.523H1724.47L1731.9 837.091H1736.67L1744.11 865.523H1744.45L1751.74 837.091H1756.04L1746.49 872H1742.13L1734.42 844.182H1734.15L1726.45 872H1722.08ZM1779.03 837.091V872H1774.81V837.091H1779.03ZM1785.6 840.841V837.091H1811.78V840.841H1800.8V872H1796.58V840.841H1785.6ZM1831.81 872V837.091H1836.03V852.636H1854.65V837.091H1858.87V872H1854.65V856.386H1836.03V872H1831.81ZM1867.34 872V837.091H1888.4V840.841H1871.56V852.636H1887.31V856.386H1871.56V868.25H1888.68V872H1867.34ZM1896.02 872V837.091H1907.82C1910.55 837.091 1912.79 837.557 1914.54 838.489C1916.29 839.409 1917.58 840.676 1918.42 842.29C1919.26 843.903 1919.68 845.739 1919.68 847.795C1919.68 849.852 1919.26 851.676 1918.42 853.267C1917.58 854.858 1916.29 856.108 1914.55 857.017C1912.81 857.915 1910.59 858.364 1907.89 858.364H1898.34V854.545H1907.75C1909.62 854.545 1911.12 854.273 1912.25 853.727C1913.4 853.182 1914.23 852.409 1914.74 851.409C1915.26 850.398 1915.52 849.193 1915.52 847.795C1915.52 846.398 1915.26 845.176 1914.74 844.131C1914.22 843.085 1913.38 842.278 1912.23 841.71C1911.09 841.131 1909.57 840.841 1907.68 840.841H1900.25V872H1896.02ZM1912.46 856.318L1921.05 872H1916.14L1907.68 856.318H1912.46ZM1926.73 872V837.091H1947.8V840.841H1930.95V852.636H1946.7V856.386H1930.95V868.25H1948.07V872H1926.73Z" fill="black"/>
<path d="M1816.73 83H1812.5C1812.25 81.7841 1811.82 80.7159 1811.19 79.7955C1810.58 78.875 1809.83 78.1023 1808.94 77.4773C1808.07 76.8409 1807.1 76.3636 1806.03 76.0455C1804.96 75.7273 1803.85 75.5682 1802.69 75.5682C1800.57 75.5682 1798.66 76.1023 1796.94 77.1705C1795.24 78.2386 1793.88 79.8125 1792.87 81.892C1791.87 83.9716 1791.37 86.5227 1791.37 89.5455C1791.37 92.5682 1791.87 95.1193 1792.87 97.1989C1793.88 99.2784 1795.24 100.852 1796.94 101.92C1798.66 102.989 1800.57 103.523 1802.69 103.523C1803.85 103.523 1804.96 103.364 1806.03 103.045C1807.1 102.727 1808.07 102.256 1808.94 101.631C1809.83 100.994 1810.58 100.216 1811.19 99.2955C1811.82 98.3636 1812.25 97.2955 1812.5 96.0909H1816.73C1816.41 97.875 1815.83 99.4716 1814.99 100.881C1814.15 102.29 1813.11 103.489 1811.86 104.477C1810.61 105.455 1809.2 106.199 1807.65 106.71C1806.1 107.222 1804.45 107.477 1802.69 107.477C1799.71 107.477 1797.06 106.75 1794.74 105.295C1792.43 103.841 1790.6 101.773 1789.27 99.0909C1787.94 96.4091 1787.28 93.2273 1787.28 89.5455C1787.28 85.8636 1787.94 82.6818 1789.27 80C1790.6 77.3182 1792.43 75.25 1794.74 73.7955C1797.06 72.3409 1799.71 71.6136 1802.69 71.6136C1804.45 71.6136 1806.1 71.8693 1807.65 72.3807C1809.2 72.892 1810.61 73.642 1811.86 74.6307C1813.11 75.608 1814.15 76.8011 1814.99 78.2102C1815.83 79.608 1816.41 81.2045 1816.73 83ZM1853.02 89.5455C1853.02 93.2273 1852.35 96.4091 1851.02 99.0909C1849.69 101.773 1847.87 103.841 1845.55 105.295C1843.23 106.75 1840.59 107.477 1837.61 107.477C1834.63 107.477 1831.98 106.75 1829.67 105.295C1827.35 103.841 1825.52 101.773 1824.19 99.0909C1822.86 96.4091 1822.2 93.2273 1822.2 89.5455C1822.2 85.8636 1822.86 82.6818 1824.19 80C1825.52 77.3182 1827.35 75.25 1829.67 73.7955C1831.98 72.3409 1834.63 71.6136 1837.61 71.6136C1840.59 71.6136 1843.23 72.3409 1845.55 73.7955C1847.87 75.25 1849.69 77.3182 1851.02 80C1852.35 82.6818 1853.02 85.8636 1853.02 89.5455ZM1848.93 89.5455C1848.93 86.5227 1848.42 83.9716 1847.41 81.892C1846.41 79.8125 1845.05 78.2386 1843.34 77.1705C1841.63 76.1023 1839.72 75.5682 1837.61 75.5682C1835.5 75.5682 1833.58 76.1023 1831.86 77.1705C1830.16 78.2386 1828.8 79.8125 1827.79 81.892C1826.79 83.9716 1826.29 86.5227 1826.29 89.5455C1826.29 92.5682 1826.79 95.1193 1827.79 97.1989C1828.8 99.2784 1830.16 100.852 1831.86 101.92C1833.58 102.989 1835.5 103.523 1837.61 103.523C1839.72 103.523 1841.63 102.989 1843.34 101.92C1845.05 100.852 1846.41 99.2784 1847.41 97.1989C1848.42 95.1193 1848.93 92.5682 1848.93 89.5455ZM1887.81 72.0909V107H1883.72L1864.69 79.5909H1864.35V107H1860.13V72.0909H1864.22L1883.31 99.5682H1883.65V72.0909H1887.81ZM1923.95 72.0909V107H1919.86L1900.83 79.5909H1900.49V107H1896.27V72.0909H1900.36L1919.45 99.5682H1919.79V72.0909H1923.95ZM1932.41 107V72.0909H1953.48V75.8409H1936.63V87.6364H1952.38V91.3864H1936.63V103.25H1953.75V107H1932.41ZM1989.19 83H1984.96C1984.71 81.7841 1984.27 80.7159 1983.65 79.7955C1983.03 78.875 1982.28 78.1023 1981.4 77.4773C1980.52 76.8409 1979.55 76.3636 1978.48 76.0455C1977.41 75.7273 1976.3 75.5682 1975.14 75.5682C1973.03 75.5682 1971.11 76.1023 1969.4 77.1705C1967.69 78.2386 1966.33 79.8125 1965.32 81.892C1964.32 83.9716 1963.82 86.5227 1963.82 89.5455C1963.82 92.5682 1964.32 95.1193 1965.32 97.1989C1966.33 99.2784 1967.69 100.852 1969.4 101.92C1971.11 102.989 1973.03 103.523 1975.14 103.523C1976.3 103.523 1977.41 103.364 1978.48 103.045C1979.55 102.727 1980.52 102.256 1981.4 101.631C1982.28 100.994 1983.03 100.216 1983.65 99.2955C1984.27 98.3636 1984.71 97.2955 1984.96 96.0909H1989.19C1988.87 97.875 1988.29 99.4716 1987.45 100.881C1986.61 102.29 1985.56 103.489 1984.31 104.477C1983.06 105.455 1981.66 106.199 1980.1 106.71C1978.55 107.222 1976.9 107.477 1975.14 107.477C1972.16 107.477 1969.51 106.75 1967.2 105.295C1964.88 103.841 1963.05 101.773 1961.73 99.0909C1960.4 96.4091 1959.73 93.2273 1959.73 89.5455C1959.73 85.8636 1960.4 82.6818 1961.73 80C1963.05 77.3182 1964.88 75.25 1967.2 73.7955C1969.51 72.3409 1972.16 71.6136 1975.14 71.6136C1976.9 71.6136 1978.55 71.8693 1980.1 72.3807C1981.66 72.892 1983.06 73.642 1984.31 74.6307C1985.56 75.608 1986.61 76.8011 1987.45 78.2102C1988.29 79.608 1988.87 81.2045 1989.19 83ZM1994.11 75.8409V72.0909H2020.29V75.8409H2009.31V107H2005.08V75.8409H1994.11Z" fill="black"/>
<path d="M1101.64 534.091H1106.69L1118.55 563.068H1118.96L1130.82 534.091H1135.87V569H1131.91V542.477H1131.57L1120.66 569H1116.85L1105.94 542.477H1105.6V569H1101.64V534.091ZM1173.8 551.545C1173.8 555.227 1173.13 558.409 1171.8 561.091C1170.48 563.773 1168.65 565.841 1166.33 567.295C1164.01 568.75 1161.37 569.477 1158.39 569.477C1155.41 569.477 1152.76 568.75 1150.45 567.295C1148.13 565.841 1146.3 563.773 1144.98 561.091C1143.65 558.409 1142.98 555.227 1142.98 551.545C1142.98 547.864 1143.65 544.682 1144.98 542C1146.3 539.318 1148.13 537.25 1150.45 535.795C1152.76 534.341 1155.41 533.614 1158.39 533.614C1161.37 533.614 1164.01 534.341 1166.33 535.795C1168.65 537.25 1170.48 539.318 1171.8 542C1173.13 544.682 1173.8 547.864 1173.8 551.545ZM1169.71 551.545C1169.71 548.523 1169.2 545.972 1168.19 543.892C1167.19 541.812 1165.83 540.239 1164.12 539.17C1162.41 538.102 1160.5 537.568 1158.39 537.568C1156.28 537.568 1154.36 538.102 1152.65 539.17C1150.94 540.239 1149.58 541.812 1148.57 543.892C1147.57 545.972 1147.07 548.523 1147.07 551.545C1147.07 554.568 1147.57 557.119 1148.57 559.199C1149.58 561.278 1150.94 562.852 1152.65 563.92C1154.36 564.989 1156.28 565.523 1158.39 565.523C1160.5 565.523 1162.41 564.989 1164.12 563.92C1165.83 562.852 1167.19 561.278 1168.19 559.199C1169.2 557.119 1169.71 554.568 1169.71 551.545ZM1191.68 569H1180.91V534.091H1192.16C1195.54 534.091 1198.44 534.79 1200.85 536.188C1203.26 537.574 1205.11 539.568 1206.39 542.17C1207.67 544.761 1208.32 547.864 1208.32 551.477C1208.32 555.114 1207.67 558.244 1206.37 560.869C1205.08 563.483 1203.19 565.494 1200.71 566.903C1198.24 568.301 1195.23 569 1191.68 569ZM1185.13 565.25H1191.41C1194.29 565.25 1196.69 564.693 1198.58 563.58C1200.48 562.466 1201.9 560.881 1202.83 558.824C1203.76 556.767 1204.23 554.318 1204.23 551.477C1204.23 548.659 1203.76 546.233 1202.84 544.199C1201.92 542.153 1200.55 540.585 1198.72 539.494C1196.89 538.392 1194.61 537.841 1191.88 537.841H1185.13V565.25ZM1215.41 569V534.091H1236.48V537.841H1219.63V549.636H1235.38V553.386H1219.63V565.25H1236.75V569H1215.41ZM1244.09 569V534.091H1248.32V565.25H1264.55V569H1244.09ZM1284.59 569V534.091H1296.8C1299.23 534.091 1301.24 534.511 1302.82 535.352C1304.4 536.182 1305.57 537.301 1306.34 538.71C1307.12 540.108 1307.5 541.659 1307.5 543.364C1307.5 544.864 1307.24 546.102 1306.7 547.08C1306.18 548.057 1305.49 548.83 1304.62 549.398C1303.77 549.966 1302.84 550.386 1301.84 550.659V551C1302.91 551.068 1303.99 551.443 1305.07 552.125C1306.15 552.807 1307.05 553.784 1307.78 555.057C1308.5 556.33 1308.87 557.886 1308.87 559.727C1308.87 561.477 1308.47 563.051 1307.67 564.449C1306.88 565.847 1305.62 566.955 1303.91 567.773C1302.19 568.591 1299.96 569 1297.21 569H1284.59ZM1288.82 565.25H1297.21C1299.97 565.25 1301.93 564.716 1303.09 563.648C1304.26 562.568 1304.84 561.261 1304.84 559.727C1304.84 558.545 1304.54 557.455 1303.94 556.455C1303.34 555.443 1302.48 554.636 1301.37 554.034C1300.25 553.42 1298.94 553.114 1297.41 553.114H1288.82V565.25ZM1288.82 549.432H1296.66C1297.94 549.432 1299.08 549.182 1300.11 548.682C1301.14 548.182 1301.96 547.477 1302.56 546.568C1303.17 545.659 1303.48 544.591 1303.48 543.364C1303.48 541.83 1302.95 540.528 1301.88 539.46C1300.81 538.381 1299.12 537.841 1296.8 537.841H1288.82V549.432Z" fill="black"/>
<path d="M1099.79 682.091H1104.84L1116.7 711.068H1117.11L1128.97 682.091H1134.02V717H1130.06V690.477H1129.72L1118.81 717H1114.99L1104.09 690.477H1103.74V717H1099.79V682.091ZM1171.95 699.545C1171.95 703.227 1171.28 706.409 1169.95 709.091C1168.62 711.773 1166.8 713.841 1164.48 715.295C1162.16 716.75 1159.52 717.477 1156.54 717.477C1153.56 717.477 1150.91 716.75 1148.6 715.295C1146.28 713.841 1144.45 711.773 1143.12 709.091C1141.79 706.409 1141.13 703.227 1141.13 699.545C1141.13 695.864 1141.79 692.682 1143.12 690C1144.45 687.318 1146.28 685.25 1148.6 683.795C1150.91 682.341 1153.56 681.614 1156.54 681.614C1159.52 681.614 1162.16 682.341 1164.48 683.795C1166.8 685.25 1168.62 687.318 1169.95 690C1171.28 692.682 1171.95 695.864 1171.95 699.545ZM1167.86 699.545C1167.86 696.523 1167.35 693.972 1166.34 691.892C1165.34 689.812 1163.98 688.239 1162.27 687.17C1160.56 686.102 1158.65 685.568 1156.54 685.568C1154.42 685.568 1152.51 686.102 1150.79 687.17C1149.09 688.239 1147.73 689.812 1146.72 691.892C1145.72 693.972 1145.22 696.523 1145.22 699.545C1145.22 702.568 1145.72 705.119 1146.72 707.199C1147.73 709.278 1149.09 710.852 1150.79 711.92C1152.51 712.989 1154.42 713.523 1156.54 713.523C1158.65 713.523 1160.56 712.989 1162.27 711.92C1163.98 710.852 1165.34 709.278 1166.34 707.199C1167.35 705.119 1167.86 702.568 1167.86 699.545ZM1189.83 717H1179.06V682.091H1190.31C1193.69 682.091 1196.59 682.79 1199 684.188C1201.41 685.574 1203.25 687.568 1204.54 690.17C1205.82 692.761 1206.46 695.864 1206.46 699.477C1206.46 703.114 1205.82 706.244 1204.52 708.869C1203.23 711.483 1201.34 713.494 1198.86 714.903C1196.38 716.301 1193.37 717 1189.83 717ZM1183.28 713.25H1189.56C1192.44 713.25 1194.83 712.693 1196.73 711.58C1198.63 710.466 1200.04 708.881 1200.98 706.824C1201.91 704.767 1202.37 702.318 1202.37 699.477C1202.37 696.659 1201.91 694.233 1200.99 692.199C1200.07 690.153 1198.7 688.585 1196.87 687.494C1195.04 686.392 1192.76 685.841 1190.03 685.841H1183.28V713.25ZM1213.56 717V682.091H1234.62V685.841H1217.78V697.636H1233.53V701.386H1217.78V713.25H1234.9V717H1213.56ZM1242.24 717V682.091H1246.47V713.25H1262.7V717H1242.24ZM1310.83 693H1306.61C1306.36 691.784 1305.92 690.716 1305.29 689.795C1304.68 688.875 1303.93 688.102 1303.04 687.477C1302.17 686.841 1301.2 686.364 1300.13 686.045C1299.06 685.727 1297.95 685.568 1296.79 685.568C1294.67 685.568 1292.76 686.102 1291.04 687.17C1289.34 688.239 1287.98 689.812 1286.97 691.892C1285.97 693.972 1285.47 696.523 1285.47 699.545C1285.47 702.568 1285.97 705.119 1286.97 707.199C1287.98 709.278 1289.34 710.852 1291.04 711.92C1292.76 712.989 1294.67 713.523 1296.79 713.523C1297.95 713.523 1299.06 713.364 1300.13 713.045C1301.2 712.727 1302.17 712.256 1303.04 711.631C1303.93 710.994 1304.68 710.216 1305.29 709.295C1305.92 708.364 1306.36 707.295 1306.61 706.091H1310.83C1310.52 707.875 1309.94 709.472 1309.1 710.881C1308.25 712.29 1307.21 713.489 1305.96 714.477C1304.71 715.455 1303.31 716.199 1301.75 716.71C1300.2 717.222 1298.55 717.477 1296.79 717.477C1293.81 717.477 1291.16 716.75 1288.85 715.295C1286.53 713.841 1284.7 711.773 1283.37 709.091C1282.04 706.409 1281.38 703.227 1281.38 699.545C1281.38 695.864 1282.04 692.682 1283.37 690C1284.7 687.318 1286.53 685.25 1288.85 683.795C1291.16 682.341 1293.81 681.614 1296.79 681.614C1298.55 681.614 1300.2 681.869 1301.75 682.381C1303.31 682.892 1304.71 683.642 1305.96 684.631C1307.21 685.608 1308.25 686.801 1309.1 688.21C1309.94 689.608 1310.52 691.205 1310.83 693Z" fill="black"/>
<path d="M1025.63 1020V985.091H1046.7V988.841H1029.86V1000.64H1045.61V1004.39H1029.86V1016.25H1046.97V1020H1025.63ZM1055.75 985.091L1066.12 1014.48H1066.53L1076.89 985.091H1081.32L1068.5 1020H1064.14L1051.32 985.091H1055.75ZM1086.76 1020V985.091H1107.83V988.841H1090.99V1000.64H1106.74V1004.39H1090.99V1016.25H1108.1V1020H1086.76ZM1143.13 985.091V1020H1139.04L1120.01 992.591H1119.67V1020H1115.45V985.091H1119.54L1138.63 1012.57H1138.97V985.091H1143.13ZM1149.68 988.841V985.091H1175.86V988.841H1164.88V1020H1160.65V988.841H1149.68ZM1214.97 993.818C1214.77 992.091 1213.94 990.75 1212.49 989.795C1211.03 988.841 1209.25 988.364 1207.13 988.364C1205.59 988.364 1204.24 988.614 1203.08 989.114C1201.93 989.614 1201.03 990.301 1200.38 991.176C1199.75 992.051 1199.43 993.045 1199.43 994.159C1199.43 995.091 1199.65 995.892 1200.09 996.562C1200.55 997.222 1201.13 997.773 1201.83 998.216C1202.54 998.648 1203.28 999.006 1204.05 999.29C1204.82 999.562 1205.53 999.784 1206.18 999.955L1209.72 1000.91C1210.63 1001.15 1211.64 1001.48 1212.76 1001.9C1213.88 1002.32 1214.96 1002.89 1215.98 1003.62C1217.01 1004.34 1217.87 1005.26 1218.54 1006.38C1219.21 1007.51 1219.54 1008.89 1219.54 1010.52C1219.54 1012.41 1219.05 1014.11 1218.06 1015.64C1217.08 1017.16 1215.65 1018.37 1213.76 1019.27C1211.89 1020.16 1209.61 1020.61 1206.93 1020.61C1204.43 1020.61 1202.26 1020.21 1200.43 1019.4C1198.62 1018.6 1197.18 1017.47 1196.14 1016.03C1195.11 1014.59 1194.52 1012.91 1194.38 1011H1198.75C1198.86 1012.32 1199.3 1013.41 1200.08 1014.27C1200.86 1015.12 1201.85 1015.76 1203.04 1016.18C1204.25 1016.59 1205.54 1016.8 1206.93 1016.8C1208.54 1016.8 1209.99 1016.53 1211.28 1016.01C1212.56 1015.48 1213.58 1014.74 1214.33 1013.8C1215.08 1012.84 1215.45 1011.73 1215.45 1010.45C1215.45 1009.3 1215.13 1008.35 1214.48 1007.62C1213.83 1006.9 1212.98 1006.31 1211.92 1005.85C1210.87 1005.4 1209.72 1005 1208.5 1004.66L1204.2 1003.43C1201.47 1002.65 1199.32 1001.53 1197.72 1000.07C1196.13 998.619 1195.34 996.716 1195.34 994.364C1195.34 992.409 1195.87 990.705 1196.92 989.25C1197.99 987.784 1199.42 986.648 1201.22 985.841C1203.03 985.023 1205.04 984.614 1207.27 984.614C1209.52 984.614 1211.52 985.017 1213.27 985.824C1215.02 986.619 1216.41 987.71 1217.43 989.097C1218.46 990.483 1219.01 992.057 1219.07 993.818H1214.97ZM1224.58 988.841V985.091H1250.77V988.841H1239.79V1020H1235.56V988.841H1224.58ZM1257.29 1020V985.091H1269.09C1271.81 985.091 1274.05 985.557 1275.8 986.489C1277.55 987.409 1278.85 988.676 1279.69 990.29C1280.53 991.903 1280.95 993.739 1280.95 995.795C1280.95 997.852 1280.53 999.676 1279.69 1001.27C1278.85 1002.86 1277.56 1004.11 1275.82 1005.02C1274.08 1005.91 1271.86 1006.36 1269.15 1006.36H1259.61V1002.55H1269.02C1270.88 1002.55 1272.38 1002.27 1273.52 1001.73C1274.66 1001.18 1275.49 1000.41 1276.01 999.409C1276.53 998.398 1276.79 997.193 1276.79 995.795C1276.79 994.398 1276.53 993.176 1276.01 992.131C1275.48 991.085 1274.65 990.278 1273.5 989.71C1272.35 989.131 1270.84 988.841 1268.95 988.841H1261.52V1020H1257.29ZM1273.72 1004.32L1282.31 1020H1277.4L1268.95 1004.32H1273.72ZM1287.99 1020V985.091H1309.06V988.841H1292.22V1000.64H1307.97V1004.39H1292.22V1016.25H1309.33V1020H1287.99ZM1318.11 1020H1313.68L1326.5 985.091H1330.86L1343.68 1020H1339.25L1328.82 990.614H1328.54L1318.11 1020ZM1319.75 1006.36H1337.61V1010.11H1319.75V1006.36ZM1349.12 985.091H1354.16L1366.03 1014.07H1366.44L1378.3 985.091H1383.35V1020H1379.39V993.477H1379.05L1368.14 1020H1364.32L1353.41 993.477H1353.07V1020H1349.12V985.091Z" fill="black"/>
<path d="M984.214 858V828.909H987.737V854.875H1001.26V858H984.214ZM1006.71 858V828.909H1024.27V832.034H1010.24V841.864H1023.36V844.989H1010.24V854.875H1024.5V858H1006.71ZM1031.81 858H1028.12L1038.8 828.909H1042.44L1053.12 858H1049.43L1040.73 833.511H1040.51L1031.81 858ZM1033.18 846.636H1048.06V849.761H1033.18V846.636ZM1066.63 858H1057.65V828.909H1067.03C1069.85 828.909 1072.26 829.491 1074.27 830.656C1076.28 831.812 1077.82 833.473 1078.89 835.642C1079.96 837.801 1080.49 840.386 1080.49 843.398C1080.49 846.428 1079.95 849.037 1078.87 851.224C1077.79 853.402 1076.22 855.079 1074.16 856.253C1072.09 857.418 1069.58 858 1066.63 858ZM1061.17 854.875H1066.4C1068.81 854.875 1070.8 854.411 1072.38 853.483C1073.96 852.555 1075.14 851.234 1075.92 849.52C1076.7 847.806 1077.08 845.765 1077.08 843.398C1077.08 841.049 1076.7 839.027 1075.93 837.332C1075.17 835.628 1074.02 834.321 1072.5 833.412C1070.97 832.493 1069.07 832.034 1066.8 832.034H1061.17V854.875ZM1086.4 858V828.909H1103.96V832.034H1089.92V841.864H1103.05V844.989H1089.92V854.875H1104.19V858H1086.4ZM1110.31 858V828.909H1120.14C1122.41 828.909 1124.28 829.297 1125.73 830.074C1127.19 830.841 1128.27 831.897 1128.97 833.241C1129.67 834.586 1130.02 836.116 1130.02 837.83C1130.02 839.544 1129.67 841.063 1128.97 842.389C1128.27 843.715 1127.2 844.757 1125.75 845.514C1124.3 846.262 1122.45 846.636 1120.19 846.636H1112.24V843.455H1120.08C1121.63 843.455 1122.88 843.227 1123.83 842.773C1124.79 842.318 1125.48 841.674 1125.9 840.841C1126.34 839.998 1126.56 838.994 1126.56 837.83C1126.56 836.665 1126.34 835.647 1125.9 834.776C1125.47 833.904 1124.77 833.232 1123.82 832.759C1122.86 832.276 1121.6 832.034 1120.02 832.034H1113.83V858H1110.31ZM1124 844.932L1131.16 858H1127.07L1120.02 844.932H1124ZM1135.89 858V828.909H1146.06C1148.09 828.909 1149.76 829.259 1151.08 829.96C1152.39 830.652 1153.37 831.584 1154.02 832.759C1154.66 833.923 1154.98 835.216 1154.98 836.636C1154.98 837.886 1154.76 838.919 1154.32 839.733C1153.88 840.547 1153.3 841.191 1152.58 841.665C1151.87 842.138 1151.1 842.489 1150.27 842.716V843C1151.16 843.057 1152.05 843.369 1152.95 843.938C1153.85 844.506 1154.61 845.32 1155.21 846.381C1155.82 847.441 1156.12 848.739 1156.12 850.273C1156.12 851.731 1155.79 853.043 1155.13 854.207C1154.46 855.372 1153.42 856.295 1151.99 856.977C1150.56 857.659 1148.7 858 1146.41 858H1135.89ZM1139.42 854.875H1146.41C1148.71 854.875 1150.34 854.43 1151.31 853.54C1152.28 852.64 1152.77 851.551 1152.77 850.273C1152.77 849.288 1152.52 848.379 1152.02 847.545C1151.51 846.703 1150.8 846.03 1149.87 845.528C1148.94 845.017 1147.84 844.761 1146.58 844.761H1139.42V854.875ZM1139.42 841.693H1145.95C1147.01 841.693 1147.97 841.485 1148.82 841.068C1149.68 840.652 1150.36 840.064 1150.87 839.307C1151.38 838.549 1151.63 837.659 1151.63 836.636C1151.63 835.358 1151.19 834.274 1150.3 833.384C1149.41 832.484 1148 832.034 1146.06 832.034H1139.42V841.693ZM1186.45 843.455C1186.45 846.523 1185.9 849.174 1184.79 851.409C1183.69 853.644 1182.17 855.367 1180.23 856.58C1178.3 857.792 1176.1 858.398 1173.61 858.398C1171.13 858.398 1168.93 857.792 1166.99 856.58C1165.06 855.367 1163.54 853.644 1162.44 851.409C1161.33 849.174 1160.77 846.523 1160.77 843.455C1160.77 840.386 1161.33 837.735 1162.44 835.5C1163.54 833.265 1165.06 831.542 1166.99 830.33C1168.93 829.117 1171.13 828.511 1173.61 828.511C1176.1 828.511 1178.3 829.117 1180.23 830.33C1182.17 831.542 1183.69 833.265 1184.79 835.5C1185.9 837.735 1186.45 840.386 1186.45 843.455ZM1183.05 843.455C1183.05 840.936 1182.62 838.81 1181.78 837.077C1180.95 835.344 1179.82 834.032 1178.39 833.142C1176.97 832.252 1175.38 831.807 1173.61 831.807C1171.85 831.807 1170.26 832.252 1168.83 833.142C1167.41 834.032 1166.27 835.344 1165.43 837.077C1164.6 838.81 1164.18 840.936 1164.18 843.455C1164.18 845.973 1164.6 848.099 1165.43 849.832C1166.27 851.565 1167.41 852.877 1168.83 853.767C1170.26 854.657 1171.85 855.102 1173.61 855.102C1175.38 855.102 1176.97 854.657 1178.39 853.767C1179.82 852.877 1180.95 851.565 1181.78 849.832C1182.62 848.099 1183.05 845.973 1183.05 843.455ZM1192.2 858H1188.51L1199.19 828.909H1202.83L1213.51 858H1209.82L1201.12 833.511H1200.9L1192.2 858ZM1193.57 846.636H1208.45V849.761H1193.57V846.636ZM1218.04 858V828.909H1227.87C1230.14 828.909 1232.01 829.297 1233.47 830.074C1234.93 830.841 1236.01 831.897 1236.71 833.241C1237.41 834.586 1237.76 836.116 1237.76 837.83C1237.76 839.544 1237.41 841.063 1236.71 842.389C1236.01 843.715 1234.93 844.757 1233.48 845.514C1232.03 846.262 1230.18 846.636 1227.93 846.636H1219.97V843.455H1227.81C1229.37 843.455 1230.62 843.227 1231.56 842.773C1232.52 842.318 1233.21 841.674 1233.64 840.841C1234.07 839.998 1234.29 838.994 1234.29 837.83C1234.29 836.665 1234.07 835.647 1233.64 834.776C1233.2 833.904 1232.51 833.232 1231.55 832.759C1230.59 832.276 1229.33 832.034 1227.76 832.034H1221.56V858H1218.04ZM1231.74 844.932L1238.89 858H1234.8L1227.76 844.932H1231.74ZM1252.61 858H1243.63V828.909H1253C1255.83 828.909 1258.24 829.491 1260.25 830.656C1262.26 831.812 1263.79 833.473 1264.86 835.642C1265.93 837.801 1266.47 840.386 1266.47 843.398C1266.47 846.428 1265.93 849.037 1264.85 851.224C1263.77 853.402 1262.2 855.079 1260.13 856.253C1258.07 857.418 1255.56 858 1252.61 858ZM1247.15 854.875H1252.38C1254.78 854.875 1256.78 854.411 1258.36 853.483C1259.94 852.555 1261.12 851.234 1261.9 849.52C1262.67 847.806 1263.06 845.765 1263.06 843.398C1263.06 841.049 1262.68 839.027 1261.91 837.332C1261.14 835.628 1260 834.321 1258.47 833.412C1256.95 832.493 1255.05 832.034 1252.78 832.034H1247.15V854.875ZM1273.12 843.455C1273.12 839.875 1273.58 836.584 1274.51 833.582C1275.45 830.571 1276.78 827.801 1278.51 825.273H1281.47C1280.79 826.21 1280.15 827.366 1279.55 828.739C1278.96 830.102 1278.45 831.603 1278 833.241C1277.56 834.87 1277.21 836.556 1276.95 838.298C1276.71 840.041 1276.58 841.759 1276.58 843.455C1276.58 845.708 1276.8 847.995 1277.24 850.315C1277.67 852.635 1278.26 854.79 1279 856.778C1279.74 858.767 1280.56 860.386 1281.47 861.636H1278.51C1276.78 859.108 1275.45 856.343 1274.51 853.341C1273.58 850.33 1273.12 847.034 1273.12 843.455ZM1286.87 858V828.909H1290.39V854.875H1303.92V858H1286.87ZM1332.78 843.455C1332.78 846.523 1332.23 849.174 1331.12 851.409C1330.01 853.644 1328.49 855.367 1326.56 856.58C1324.63 857.792 1322.42 858.398 1319.94 858.398C1317.46 858.398 1315.25 857.792 1313.32 856.58C1311.39 855.367 1309.87 853.644 1308.76 851.409C1307.66 849.174 1307.1 846.523 1307.1 843.455C1307.1 840.386 1307.66 837.735 1308.76 835.5C1309.87 833.265 1311.39 831.542 1313.32 830.33C1315.25 829.117 1317.46 828.511 1319.94 828.511C1322.42 828.511 1324.63 829.117 1326.56 830.33C1328.49 831.542 1330.01 833.265 1331.12 835.5C1332.23 837.735 1332.78 840.386 1332.78 843.455ZM1329.37 843.455C1329.37 840.936 1328.95 838.81 1328.11 837.077C1327.28 835.344 1326.14 834.032 1324.71 833.142C1323.29 832.252 1321.7 831.807 1319.94 831.807C1318.18 831.807 1316.59 832.252 1315.16 833.142C1313.73 834.032 1312.6 835.344 1311.76 837.077C1310.93 838.81 1310.51 840.936 1310.51 843.455C1310.51 845.973 1310.93 848.099 1311.76 849.832C1312.6 851.565 1313.73 852.877 1315.16 853.767C1316.59 854.657 1318.18 855.102 1319.94 855.102C1321.7 855.102 1323.29 854.657 1324.71 853.767C1326.14 852.877 1327.28 851.565 1328.11 849.832C1328.95 848.099 1329.37 845.973 1329.37 843.455ZM1362.12 838H1358.59C1358.38 836.987 1358.02 836.097 1357.5 835.33C1356.99 834.562 1356.36 833.919 1355.62 833.398C1354.89 832.867 1354.09 832.47 1353.19 832.205C1352.3 831.939 1351.38 831.807 1350.41 831.807C1348.65 831.807 1347.05 832.252 1345.62 833.142C1344.2 834.032 1343.07 835.344 1342.23 837.077C1341.4 838.81 1340.98 840.936 1340.98 843.455C1340.98 845.973 1341.4 848.099 1342.23 849.832C1343.07 851.565 1344.2 852.877 1345.62 853.767C1347.05 854.657 1348.65 855.102 1350.41 855.102C1351.38 855.102 1352.3 854.97 1353.19 854.705C1354.09 854.439 1354.89 854.046 1355.62 853.526C1356.36 852.995 1356.99 852.347 1357.5 851.58C1358.02 850.803 1358.38 849.913 1358.59 848.909H1362.12C1361.85 850.396 1361.37 851.726 1360.67 852.901C1359.97 854.075 1359.09 855.074 1358.05 855.898C1357.01 856.712 1355.84 857.332 1354.54 857.759C1353.26 858.185 1351.88 858.398 1350.41 858.398C1347.93 858.398 1345.72 857.792 1343.79 856.58C1341.86 855.367 1340.34 853.644 1339.23 851.409C1338.12 849.174 1337.57 846.523 1337.57 843.455C1337.57 840.386 1338.12 837.735 1339.23 835.5C1340.34 833.265 1341.86 831.542 1343.79 830.33C1345.72 829.117 1347.93 828.511 1350.41 828.511C1351.88 828.511 1353.26 828.724 1354.54 829.151C1355.84 829.577 1357.01 830.202 1358.05 831.026C1359.09 831.84 1359.97 832.834 1360.67 834.009C1361.37 835.173 1361.85 836.504 1362.12 838ZM1369 858H1365.31L1375.99 828.909H1379.63L1390.31 858H1386.61L1377.92 833.511H1377.69L1369 858ZM1370.36 846.636H1385.25V849.761H1370.36V846.636ZM1394.84 858V828.909H1398.36V854.875H1411.88V858H1394.84ZM1424.04 843.455C1424.04 847.034 1423.57 850.33 1422.64 853.341C1421.71 856.343 1420.38 859.108 1418.65 861.636H1415.69C1416.37 860.699 1417.01 859.544 1417.59 858.17C1418.19 856.807 1418.71 855.311 1419.16 853.682C1419.6 852.044 1419.95 850.353 1420.19 848.611C1420.45 846.859 1420.58 845.14 1420.58 843.455C1420.58 841.201 1420.36 838.914 1419.92 836.594C1419.49 834.274 1418.9 832.119 1418.16 830.131C1417.42 828.142 1416.6 826.523 1415.69 825.273H1418.65C1420.38 827.801 1421.71 830.571 1422.64 833.582C1423.57 836.584 1424.04 839.875 1424.04 843.455Z" fill="black"/>
<path d="M1239.51 255V220.091H1243.74V251.25H1259.96V255H1239.51ZM1266.51 255V220.091H1287.58V223.841H1270.74V235.636H1286.49V239.386H1270.74V251.25H1287.85V255H1266.51ZM1296.63 255H1292.2L1305.01 220.091H1309.38L1322.2 255H1317.76L1307.33 225.614H1307.06L1296.63 255ZM1298.26 241.364H1316.13V245.114H1298.26V241.364ZM1338.41 255H1327.63V220.091H1338.88C1342.27 220.091 1345.17 220.79 1347.58 222.188C1349.99 223.574 1351.83 225.568 1353.12 228.17C1354.4 230.761 1355.04 233.864 1355.04 237.477C1355.04 241.114 1354.39 244.244 1353.1 246.869C1351.8 249.483 1349.92 251.494 1347.44 252.903C1344.96 254.301 1341.95 255 1338.41 255ZM1331.86 251.25H1338.13C1341.02 251.25 1343.41 250.693 1345.31 249.58C1347.21 248.466 1348.62 246.881 1349.55 244.824C1350.49 242.767 1350.95 240.318 1350.95 237.477C1350.95 234.659 1350.49 232.233 1349.57 230.199C1348.65 228.153 1347.28 226.585 1345.45 225.494C1343.62 224.392 1341.34 223.841 1338.61 223.841H1331.86V251.25ZM1362.13 255V220.091H1383.2V223.841H1366.36V235.636H1382.11V239.386H1366.36V251.25H1383.47V255H1362.13ZM1390.82 255V220.091H1402.62C1405.34 220.091 1407.58 220.557 1409.33 221.489C1411.08 222.409 1412.38 223.676 1413.22 225.29C1414.06 226.903 1414.48 228.739 1414.48 230.795C1414.48 232.852 1414.06 234.676 1413.22 236.267C1412.38 237.858 1411.09 239.108 1409.35 240.017C1407.61 240.915 1405.39 241.364 1402.68 241.364H1393.14V237.545H1402.55C1404.41 237.545 1405.91 237.273 1407.05 236.727C1408.2 236.182 1409.03 235.409 1409.54 234.409C1410.06 233.398 1410.32 232.193 1410.32 230.795C1410.32 229.398 1410.06 228.176 1409.54 227.131C1409.01 226.085 1408.18 225.278 1407.03 224.71C1405.88 224.131 1404.37 223.841 1402.48 223.841H1395.05V255H1390.82ZM1407.25 239.318L1415.84 255H1410.93L1402.48 239.318H1407.25ZM1421.52 255V220.091H1433.73C1436.16 220.091 1438.17 220.511 1439.75 221.352C1441.33 222.182 1442.5 223.301 1443.27 224.71C1444.05 226.108 1444.43 227.659 1444.43 229.364C1444.43 230.864 1444.17 232.102 1443.63 233.08C1443.11 234.057 1442.42 234.83 1441.55 235.398C1440.7 235.966 1439.77 236.386 1438.77 236.659V237C1439.84 237.068 1440.92 237.443 1442 238.125C1443.08 238.807 1443.98 239.784 1444.71 241.057C1445.43 242.33 1445.8 243.886 1445.8 245.727C1445.8 247.477 1445.4 249.051 1444.6 250.449C1443.81 251.847 1442.55 252.955 1440.84 253.773C1439.12 254.591 1436.89 255 1434.14 255H1421.52ZM1425.75 251.25H1434.14C1436.9 251.25 1438.86 250.716 1440.02 249.648C1441.19 248.568 1441.77 247.261 1441.77 245.727C1441.77 244.545 1441.47 243.455 1440.87 242.455C1440.27 241.443 1439.41 240.636 1438.3 240.034C1437.18 239.42 1435.87 239.114 1434.34 239.114H1425.75V251.25ZM1425.75 235.432H1433.59C1434.87 235.432 1436.01 235.182 1437.04 234.682C1438.07 234.182 1438.89 233.477 1439.49 232.568C1440.1 231.659 1440.41 230.591 1440.41 229.364C1440.41 227.83 1439.88 226.528 1438.81 225.46C1437.74 224.381 1436.05 223.841 1433.73 223.841H1425.75V235.432ZM1482.2 237.545C1482.2 241.227 1481.53 244.409 1480.2 247.091C1478.87 249.773 1477.05 251.841 1474.73 253.295C1472.41 254.75 1469.77 255.477 1466.79 255.477C1463.81 255.477 1461.16 254.75 1458.85 253.295C1456.53 251.841 1454.7 249.773 1453.37 247.091C1452.04 244.409 1451.38 241.227 1451.38 237.545C1451.38 233.864 1452.04 230.682 1453.37 228C1454.7 225.318 1456.53 223.25 1458.85 221.795C1461.16 220.341 1463.81 219.614 1466.79 219.614C1469.77 219.614 1472.41 220.341 1474.73 221.795C1477.05 223.25 1478.87 225.318 1480.2 228C1481.53 230.682 1482.2 233.864 1482.2 237.545ZM1478.11 237.545C1478.11 234.523 1477.6 231.972 1476.59 229.892C1475.59 227.812 1474.23 226.239 1472.52 225.17C1470.81 224.102 1468.9 223.568 1466.79 223.568C1464.67 223.568 1462.76 224.102 1461.04 225.17C1459.34 226.239 1457.98 227.812 1456.97 229.892C1455.97 231.972 1455.47 234.523 1455.47 237.545C1455.47 240.568 1455.97 243.119 1456.97 245.199C1457.98 247.278 1459.34 248.852 1461.04 249.92C1462.76 250.989 1464.67 251.523 1466.79 251.523C1468.9 251.523 1470.81 250.989 1472.52 249.92C1474.23 248.852 1475.59 247.278 1476.59 245.199C1477.6 243.119 1478.11 240.568 1478.11 237.545ZM1489.1 255H1484.66L1497.48 220.091H1501.85L1514.66 255H1510.23L1499.8 225.614H1499.53L1489.1 255ZM1490.73 241.364H1508.6V245.114H1490.73V241.364ZM1520.1 255V220.091H1531.9C1534.63 220.091 1536.86 220.557 1538.61 221.489C1540.36 222.409 1541.66 223.676 1542.5 225.29C1543.34 226.903 1543.76 228.739 1543.76 230.795C1543.76 232.852 1543.34 234.676 1542.5 236.267C1541.66 237.858 1540.37 239.108 1538.63 240.017C1536.89 240.915 1534.67 241.364 1531.97 241.364H1522.42V237.545H1531.83C1533.69 237.545 1535.19 237.273 1536.33 236.727C1537.48 236.182 1538.31 235.409 1538.82 234.409C1539.34 233.398 1539.6 232.193 1539.6 230.795C1539.6 229.398 1539.34 228.176 1538.82 227.131C1538.3 226.085 1537.46 225.278 1536.31 224.71C1535.16 224.131 1533.65 223.841 1531.76 223.841H1524.33V255H1520.1ZM1536.53 239.318L1545.12 255H1540.22L1531.76 239.318H1536.53ZM1561.58 255H1550.81V220.091H1562.06C1565.44 220.091 1568.34 220.79 1570.75 222.188C1573.16 223.574 1575 225.568 1576.29 228.17C1577.57 230.761 1578.21 233.864 1578.21 237.477C1578.21 241.114 1577.57 244.244 1576.27 246.869C1574.98 249.483 1573.09 251.494 1570.61 252.903C1568.13 254.301 1565.12 255 1561.58 255ZM1555.03 251.25H1561.31C1564.19 251.25 1566.58 250.693 1568.48 249.58C1570.38 248.466 1571.79 246.881 1572.73 244.824C1573.66 242.767 1574.12 240.318 1574.12 237.477C1574.12 234.659 1573.66 232.233 1572.74 230.199C1571.82 228.153 1570.45 226.585 1568.62 225.494C1566.79 224.392 1564.51 223.841 1561.78 223.841H1555.03V251.25ZM1598.81 255V220.091H1603.03V251.25H1619.26V255H1598.81ZM1630.03 220.091V255H1625.81V220.091H1630.03ZM1666.19 220.091V255H1662.1L1643.08 227.591H1642.74V255H1638.51V220.091H1642.6L1661.69 247.568H1662.03V220.091H1666.19ZM1674.65 255V220.091H1695.72V223.841H1678.88V235.636H1694.63V239.386H1678.88V251.25H1695.99V255H1674.65ZM1722.43 228.818C1722.22 227.091 1721.39 225.75 1719.94 224.795C1718.48 223.841 1716.7 223.364 1714.59 223.364C1713.04 223.364 1711.69 223.614 1710.53 224.114C1709.38 224.614 1708.48 225.301 1707.84 226.176C1707.2 227.051 1706.88 228.045 1706.88 229.159C1706.88 230.091 1707.1 230.892 1707.55 231.562C1708 232.222 1708.58 232.773 1709.29 233.216C1709.99 233.648 1710.73 234.006 1711.5 234.29C1712.27 234.562 1712.98 234.784 1713.63 234.955L1717.18 235.909C1718.09 236.148 1719.1 236.477 1720.21 236.898C1721.34 237.318 1722.41 237.892 1723.43 238.619C1724.47 239.335 1725.32 240.256 1725.99 241.381C1726.66 242.506 1727 243.886 1727 245.523C1727 247.409 1726.5 249.114 1725.51 250.636C1724.54 252.159 1723.1 253.369 1721.22 254.267C1719.34 255.165 1717.06 255.614 1714.38 255.614C1711.88 255.614 1709.72 255.21 1707.89 254.403C1706.07 253.597 1704.64 252.472 1703.59 251.028C1702.56 249.585 1701.97 247.909 1701.84 246H1706.2C1706.31 247.318 1706.76 248.409 1707.53 249.273C1708.31 250.125 1709.3 250.761 1710.5 251.182C1711.7 251.591 1713 251.795 1714.38 251.795C1716 251.795 1717.44 251.534 1718.73 251.011C1720.01 250.477 1721.03 249.739 1721.78 248.795C1722.53 247.841 1722.9 246.727 1722.9 245.455C1722.9 244.295 1722.58 243.352 1721.93 242.625C1721.29 241.898 1720.43 241.307 1719.38 240.852C1718.32 240.398 1717.18 240 1715.95 239.659L1711.65 238.432C1708.93 237.648 1706.77 236.528 1705.18 235.074C1703.59 233.619 1702.79 231.716 1702.79 229.364C1702.79 227.409 1703.32 225.705 1704.38 224.25C1705.44 222.784 1706.88 221.648 1708.67 220.841C1710.48 220.023 1712.5 219.614 1714.72 219.614C1716.97 219.614 1718.97 220.017 1720.72 220.824C1722.47 221.619 1723.86 222.71 1724.88 224.097C1725.92 225.483 1726.46 227.057 1726.52 228.818H1722.43Z" fill="black"/>
<path d="M349.667 68.0909V103H345.576L326.553 75.5909H326.212V103H321.985V68.0909H326.076L345.167 95.5682H345.508V68.0909H349.667ZM359.558 103H355.126L367.944 68.0909H372.308L385.126 103H380.694L370.262 73.6136H369.989L359.558 103ZM361.194 89.3636H379.058V93.1136H361.194V89.3636ZM388.714 68.0909L399.077 97.4773H399.487L409.85 68.0909H414.282L401.464 103H397.1L384.282 68.0909H388.714ZM433.219 103V68.0909H445.424C447.856 68.0909 449.862 68.5114 451.441 69.3523C453.021 70.1818 454.197 71.3011 454.969 72.7102C455.742 74.108 456.129 75.6591 456.129 77.3636C456.129 78.8636 455.862 80.1023 455.327 81.0795C454.805 82.0568 454.112 82.8295 453.248 83.3977C452.396 83.9659 451.469 84.3864 450.469 84.6591V85C451.538 85.0682 452.612 85.4432 453.691 86.125C454.771 86.8068 455.674 87.7841 456.401 89.0568C457.129 90.3295 457.492 91.8864 457.492 93.7273C457.492 95.4773 457.094 97.0511 456.299 98.4489C455.504 99.8466 454.248 100.955 452.532 101.773C450.816 102.591 448.583 103 445.833 103H433.219ZM437.447 99.25H445.833C448.594 99.25 450.555 98.7159 451.714 97.6477C452.884 96.5682 453.469 95.2614 453.469 93.7273C453.469 92.5455 453.168 91.4545 452.566 90.4545C451.964 89.4432 451.106 88.6364 449.992 88.0341C448.879 87.4205 447.56 87.1136 446.038 87.1136H437.447V99.25ZM437.447 83.4318H445.288C446.56 83.4318 447.708 83.1818 448.731 82.6818C449.765 82.1818 450.583 81.4773 451.185 80.5682C451.799 79.6591 452.106 78.5909 452.106 77.3636C452.106 75.8295 451.572 74.5284 450.504 73.4602C449.435 72.3807 447.742 71.8409 445.424 71.8409H437.447V83.4318ZM487.347 68.0909H491.575V91.2045C491.575 93.5909 491.012 95.7216 489.887 97.5966C488.773 99.4602 487.2 100.932 485.165 102.011C483.131 103.08 480.745 103.614 478.006 103.614C475.268 103.614 472.881 103.08 470.847 102.011C468.813 100.932 467.234 99.4602 466.109 97.5966C464.995 95.7216 464.438 93.5909 464.438 91.2045V68.0909H468.665V90.8636C468.665 92.5682 469.04 94.0852 469.79 95.4148C470.54 96.733 471.609 97.7727 472.995 98.5341C474.393 99.2841 476.063 99.6591 478.006 99.6591C479.95 99.6591 481.62 99.2841 483.018 98.5341C484.415 97.7727 485.484 96.733 486.222 95.4148C486.972 94.0852 487.347 92.5682 487.347 90.8636V68.0909ZM498.107 71.8409V68.0909H524.289V71.8409H513.312V103H509.085V71.8409H498.107ZM528.904 71.8409V68.0909H555.086V71.8409H544.109V103H539.881V71.8409H528.904ZM589.612 85.5455C589.612 89.2273 588.947 92.4091 587.617 95.0909C586.288 97.7727 584.464 99.8409 582.146 101.295C579.827 102.75 577.18 103.477 574.202 103.477C571.225 103.477 568.577 102.75 566.259 101.295C563.941 99.8409 562.117 97.7727 560.788 95.0909C559.458 92.4091 558.793 89.2273 558.793 85.5455C558.793 81.8636 559.458 78.6818 560.788 76C562.117 73.3182 563.941 71.25 566.259 69.7955C568.577 68.3409 571.225 67.6136 574.202 67.6136C577.18 67.6136 579.827 68.3409 582.146 69.7955C584.464 71.25 586.288 73.3182 587.617 76C588.947 78.6818 589.612 81.8636 589.612 85.5455ZM585.521 85.5455C585.521 82.5227 585.015 79.9716 584.004 77.892C583.004 75.8125 581.646 74.2386 579.93 73.1705C578.225 72.1023 576.316 71.5682 574.202 71.5682C572.089 71.5682 570.174 72.1023 568.458 73.1705C566.754 74.2386 565.396 75.8125 564.384 77.892C563.384 79.9716 562.884 82.5227 562.884 85.5455C562.884 88.5682 563.384 91.1193 564.384 93.1989C565.396 95.2784 566.754 96.8523 568.458 97.9205C570.174 98.9886 572.089 99.5227 574.202 99.5227C576.316 99.5227 578.225 98.9886 579.93 97.9205C581.646 96.8523 583.004 95.2784 584.004 93.1989C585.015 91.1193 585.521 88.5682 585.521 85.5455ZM624.401 68.0909V103H620.31L601.288 75.5909H600.947V103H596.719V68.0909H600.81L619.901 95.5682H620.242V68.0909H624.401ZM651.951 76.8182C651.746 75.0909 650.917 73.75 649.462 72.7955C648.008 71.8409 646.224 71.3636 644.11 71.3636C642.565 71.3636 641.212 71.6136 640.053 72.1136C638.906 72.6136 638.008 73.3011 637.36 74.1761C636.724 75.0511 636.406 76.0455 636.406 77.1591C636.406 78.0909 636.627 78.892 637.07 79.5625C637.525 80.2216 638.104 80.7727 638.809 81.2159C639.513 81.6477 640.252 82.0057 641.025 82.2898C641.798 82.5625 642.508 82.7841 643.156 82.9545L646.701 83.9091C647.61 84.1477 648.621 84.4773 649.735 84.8977C650.86 85.3182 651.934 85.892 652.957 86.6193C653.991 87.3352 654.843 88.2557 655.513 89.3807C656.184 90.5057 656.519 91.8864 656.519 93.5227C656.519 95.4091 656.025 97.1136 655.036 98.6364C654.059 100.159 652.627 101.369 650.741 102.267C648.866 103.165 646.587 103.614 643.906 103.614C641.406 103.614 639.241 103.21 637.411 102.403C635.593 101.597 634.161 100.472 633.116 99.0284C632.082 97.5852 631.496 95.9091 631.36 94H635.724C635.837 95.3182 636.281 96.4091 637.053 97.2727C637.837 98.125 638.826 98.7614 640.019 99.1818C641.224 99.5909 642.519 99.7955 643.906 99.7955C645.519 99.7955 646.968 99.5341 648.252 99.0114C649.536 98.4773 650.553 97.7386 651.303 96.7955C652.053 95.8409 652.428 94.7273 652.428 93.4545C652.428 92.2955 652.104 91.3523 651.457 90.625C650.809 89.8977 649.957 89.3068 648.9 88.8523C647.843 88.3977 646.701 88 645.474 87.6591L641.178 86.4318C638.451 85.6477 636.292 84.5284 634.701 83.0739C633.11 81.6193 632.315 79.7159 632.315 77.3636C632.315 75.4091 632.843 73.7045 633.9 72.25C634.968 70.7841 636.4 69.6477 638.195 68.8409C640.002 68.0227 642.019 67.6136 644.246 67.6136C646.496 67.6136 648.496 68.017 650.246 68.8239C651.996 69.6193 653.383 70.7102 654.406 72.0966C655.44 73.483 655.985 75.0568 656.042 76.8182H651.951Z" fill="black"/>
<path d="M417.808 569H413.376L426.194 534.091H430.558L443.376 569H438.944L428.512 539.614H428.239L417.808 569ZM419.444 555.364H437.308V559.114H419.444V555.364ZM463.745 534.091L474.109 563.477H474.518L484.881 534.091H489.313L476.495 569H472.131L459.313 534.091H463.745ZM513.842 542.818C513.637 541.091 512.808 539.75 511.353 538.795C509.898 537.841 508.114 537.364 506.001 537.364C504.455 537.364 503.103 537.614 501.944 538.114C500.796 538.614 499.898 539.301 499.251 540.176C498.614 541.051 498.296 542.045 498.296 543.159C498.296 544.091 498.518 544.892 498.961 545.562C499.415 546.222 499.995 546.773 500.7 547.216C501.404 547.648 502.143 548.006 502.915 548.29C503.688 548.562 504.398 548.784 505.046 548.955L508.592 549.909C509.501 550.148 510.512 550.477 511.626 550.898C512.751 551.318 513.825 551.892 514.847 552.619C515.881 553.335 516.734 554.256 517.404 555.381C518.075 556.506 518.41 557.886 518.41 559.523C518.41 561.409 517.915 563.114 516.927 564.636C515.95 566.159 514.518 567.369 512.631 568.267C510.756 569.165 508.478 569.614 505.796 569.614C503.296 569.614 501.131 569.21 499.302 568.403C497.484 567.597 496.052 566.472 495.006 565.028C493.972 563.585 493.387 561.909 493.251 560H497.614C497.728 561.318 498.171 562.409 498.944 563.273C499.728 564.125 500.717 564.761 501.91 565.182C503.114 565.591 504.41 565.795 505.796 565.795C507.41 565.795 508.859 565.534 510.143 565.011C511.427 564.477 512.444 563.739 513.194 562.795C513.944 561.841 514.319 560.727 514.319 559.455C514.319 558.295 513.995 557.352 513.347 556.625C512.7 555.898 511.847 555.307 510.79 554.852C509.734 554.398 508.592 554 507.364 553.659L503.069 552.432C500.342 551.648 498.183 550.528 496.592 549.074C495.001 547.619 494.205 545.716 494.205 543.364C494.205 541.409 494.734 539.705 495.79 538.25C496.859 536.784 498.29 535.648 500.086 534.841C501.893 534.023 503.91 533.614 506.137 533.614C508.387 533.614 510.387 534.017 512.137 534.824C513.887 535.619 515.273 536.71 516.296 538.097C517.33 539.483 517.876 541.057 517.933 542.818H513.842ZM538.86 569V534.091H551.065C553.496 534.091 555.502 534.511 557.082 535.352C558.661 536.182 559.837 537.301 560.61 538.71C561.383 540.108 561.769 541.659 561.769 543.364C561.769 544.864 561.502 546.102 560.968 547.08C560.445 548.057 559.752 548.83 558.888 549.398C558.036 549.966 557.11 550.386 556.11 550.659V551C557.178 551.068 558.252 551.443 559.332 552.125C560.411 552.807 561.315 553.784 562.042 555.057C562.769 556.33 563.133 557.886 563.133 559.727C563.133 561.477 562.735 563.051 561.94 564.449C561.144 565.847 559.888 566.955 558.173 567.773C556.457 568.591 554.224 569 551.474 569H538.86ZM543.087 565.25H551.474C554.235 565.25 556.195 564.716 557.354 563.648C558.525 562.568 559.11 561.261 559.11 559.727C559.11 558.545 558.809 557.455 558.207 556.455C557.604 555.443 556.746 554.636 555.633 554.034C554.519 553.42 553.201 553.114 551.678 553.114H543.087V565.25ZM543.087 549.432H550.928C552.201 549.432 553.349 549.182 554.371 548.682C555.406 548.182 556.224 547.477 556.826 546.568C557.44 545.659 557.746 544.591 557.746 543.364C557.746 541.83 557.212 540.528 556.144 539.46C555.076 538.381 553.383 537.841 551.065 537.841H543.087V549.432Z" fill="black"/>
<rect x="1617" y="923" width="311" height="92" fill="#9C9C9C"/>
<path d="M1677.41 985V950.091H1689.61C1692.04 950.091 1694.05 950.511 1695.63 951.352C1697.21 952.182 1698.38 953.301 1699.16 954.71C1699.93 956.108 1700.32 957.659 1700.32 959.364C1700.32 960.864 1700.05 962.102 1699.51 963.08C1698.99 964.057 1698.3 964.83 1697.44 965.398C1696.58 965.966 1695.66 966.386 1694.66 966.659V967C1695.73 967.068 1696.8 967.443 1697.88 968.125C1698.96 968.807 1699.86 969.784 1700.59 971.057C1701.32 972.33 1701.68 973.886 1701.68 975.727C1701.68 977.477 1701.28 979.051 1700.49 980.449C1699.69 981.847 1698.44 982.955 1696.72 983.773C1695 984.591 1692.77 985 1690.02 985H1677.41ZM1681.63 981.25H1690.02C1692.78 981.25 1694.74 980.716 1695.9 979.648C1697.07 978.568 1697.66 977.261 1697.66 975.727C1697.66 974.545 1697.36 973.455 1696.75 972.455C1696.15 971.443 1695.29 970.636 1694.18 970.034C1693.07 969.42 1691.75 969.114 1690.23 969.114H1681.63V981.25ZM1681.63 965.432H1689.48C1690.75 965.432 1691.9 965.182 1692.92 964.682C1693.95 964.182 1694.77 963.477 1695.37 962.568C1695.99 961.659 1696.29 960.591 1696.29 959.364C1696.29 957.83 1695.76 956.528 1694.69 955.46C1693.62 954.381 1691.93 953.841 1689.61 953.841H1681.63V965.432ZM1731.53 950.091H1735.76V973.205C1735.76 975.591 1735.2 977.722 1734.07 979.597C1732.96 981.46 1731.39 982.932 1729.35 984.011C1727.32 985.08 1724.93 985.614 1722.19 985.614C1719.46 985.614 1717.07 985.08 1715.03 984.011C1713 982.932 1711.42 981.46 1710.3 979.597C1709.18 977.722 1708.63 975.591 1708.63 973.205V950.091H1712.85V972.864C1712.85 974.568 1713.23 976.085 1713.98 977.415C1714.73 978.733 1715.8 979.773 1717.18 980.534C1718.58 981.284 1720.25 981.659 1722.19 981.659C1724.14 981.659 1725.81 981.284 1727.21 980.534C1728.6 979.773 1729.67 978.733 1730.41 977.415C1731.16 976.085 1731.53 974.568 1731.53 972.864V950.091ZM1742.29 953.841V950.091H1768.48V953.841H1757.5V985H1753.27V953.841H1742.29ZM1773.09 953.841V950.091H1799.27V953.841H1788.3V985H1784.07V953.841H1773.09ZM1833.8 967.545C1833.8 971.227 1833.13 974.409 1831.8 977.091C1830.48 979.773 1828.65 981.841 1826.33 983.295C1824.01 984.75 1821.37 985.477 1818.39 985.477C1815.41 985.477 1812.76 984.75 1810.45 983.295C1808.13 981.841 1806.3 979.773 1804.98 977.091C1803.65 974.409 1802.98 971.227 1802.98 967.545C1802.98 963.864 1803.65 960.682 1804.98 958C1806.3 955.318 1808.13 953.25 1810.45 951.795C1812.76 950.341 1815.41 949.614 1818.39 949.614C1821.37 949.614 1824.01 950.341 1826.33 951.795C1828.65 953.25 1830.48 955.318 1831.8 958C1833.13 960.682 1833.8 963.864 1833.8 967.545ZM1829.71 967.545C1829.71 964.523 1829.2 961.972 1828.19 959.892C1827.19 957.812 1825.83 956.239 1824.12 955.17C1822.41 954.102 1820.5 953.568 1818.39 953.568C1816.28 953.568 1814.36 954.102 1812.65 955.17C1810.94 956.239 1809.58 957.812 1808.57 959.892C1807.57 961.972 1807.07 964.523 1807.07 967.545C1807.07 970.568 1807.57 973.119 1808.57 975.199C1809.58 977.278 1810.94 978.852 1812.65 979.92C1814.36 980.989 1816.28 981.523 1818.39 981.523C1820.5 981.523 1822.41 980.989 1824.12 979.92C1825.83 978.852 1827.19 977.278 1828.19 975.199C1829.2 973.119 1829.71 970.568 1829.71 967.545ZM1868.59 950.091V985H1864.5L1845.48 957.591H1845.13V985H1840.91V950.091H1845L1864.09 977.568H1864.43V950.091H1868.59Z" fill="black"/>
<path d="M318.654 892.841V889.091H344.836V892.841H333.859V924H329.631V892.841H318.654ZM379.362 906.545C379.362 910.227 378.697 913.409 377.367 916.091C376.038 918.773 374.214 920.841 371.896 922.295C369.577 923.75 366.93 924.477 363.952 924.477C360.975 924.477 358.327 923.75 356.009 922.295C353.691 920.841 351.867 918.773 350.538 916.091C349.208 913.409 348.543 910.227 348.543 906.545C348.543 902.864 349.208 899.682 350.538 897C351.867 894.318 353.691 892.25 356.009 890.795C358.327 889.341 360.975 888.614 363.952 888.614C366.93 888.614 369.577 889.341 371.896 890.795C374.214 892.25 376.038 894.318 377.367 897C378.697 899.682 379.362 902.864 379.362 906.545ZM375.271 906.545C375.271 903.523 374.765 900.972 373.754 898.892C372.754 896.812 371.396 895.239 369.68 894.17C367.975 893.102 366.066 892.568 363.952 892.568C361.839 892.568 359.924 893.102 358.208 894.17C356.504 895.239 355.146 896.812 354.134 898.892C353.134 900.972 352.634 903.523 352.634 906.545C352.634 909.568 353.134 912.119 354.134 914.199C355.146 916.278 356.504 917.852 358.208 918.92C359.924 919.989 361.839 920.523 363.952 920.523C366.066 920.523 367.975 919.989 369.68 918.92C371.396 917.852 372.754 916.278 373.754 914.199C374.765 912.119 375.271 909.568 375.271 906.545ZM383.107 892.841V889.091H409.289V892.841H398.312V924H394.085V892.841H383.107ZM413.167 924H408.735L421.553 889.091H425.917L438.735 924H434.303L423.871 894.614H423.599L413.167 924ZM414.803 910.364H432.667V914.114H414.803V910.364ZM444.173 924V889.091H448.4V920.25H464.627V924H444.173ZM486.104 889.091L496.468 918.477H496.877L507.241 889.091H511.673L498.854 924H494.491L481.673 889.091H486.104ZM515.542 924H511.11L523.928 889.091H528.292L541.11 924H536.678L526.246 894.614H525.974L515.542 924ZM517.178 910.364H535.042V914.114H517.178V910.364ZM569.457 889.091H573.684V912.205C573.684 914.591 573.121 916.722 571.996 918.597C570.883 920.46 569.309 921.932 567.275 923.011C565.241 924.08 562.854 924.614 560.116 924.614C557.377 924.614 554.991 924.08 552.957 923.011C550.923 921.932 549.343 920.46 548.218 918.597C547.104 916.722 546.548 914.591 546.548 912.205V889.091H550.775V911.864C550.775 913.568 551.15 915.085 551.9 916.415C552.65 917.733 553.718 918.773 555.104 919.534C556.502 920.284 558.173 920.659 560.116 920.659C562.059 920.659 563.729 920.284 565.127 919.534C566.525 918.773 567.593 917.733 568.332 916.415C569.082 915.085 569.457 913.568 569.457 911.864V889.091ZM582.126 924V889.091H586.353V920.25H602.58V924H582.126ZM602.576 892.841V889.091H628.758V892.841H617.781V924H613.553V892.841H602.576ZM654.373 897.818C654.168 896.091 653.339 894.75 651.884 893.795C650.43 892.841 648.646 892.364 646.532 892.364C644.987 892.364 643.634 892.614 642.475 893.114C641.327 893.614 640.43 894.301 639.782 895.176C639.146 896.051 638.827 897.045 638.827 898.159C638.827 899.091 639.049 899.892 639.492 900.562C639.947 901.222 640.526 901.773 641.231 902.216C641.935 902.648 642.674 903.006 643.447 903.29C644.219 903.562 644.93 903.784 645.577 903.955L649.123 904.909C650.032 905.148 651.043 905.477 652.157 905.898C653.282 906.318 654.356 906.892 655.379 907.619C656.413 908.335 657.265 909.256 657.935 910.381C658.606 911.506 658.941 912.886 658.941 914.523C658.941 916.409 658.447 918.114 657.458 919.636C656.481 921.159 655.049 922.369 653.163 923.267C651.288 924.165 649.009 924.614 646.327 924.614C643.827 924.614 641.663 924.21 639.833 923.403C638.015 922.597 636.583 921.472 635.538 920.028C634.504 918.585 633.918 916.909 633.782 915H638.146C638.259 916.318 638.702 917.409 639.475 918.273C640.259 919.125 641.248 919.761 642.441 920.182C643.646 920.591 644.941 920.795 646.327 920.795C647.941 920.795 649.39 920.534 650.674 920.011C651.958 919.477 652.975 918.739 653.725 917.795C654.475 916.841 654.85 915.727 654.85 914.455C654.85 913.295 654.526 912.352 653.879 911.625C653.231 910.898 652.379 910.307 651.322 909.852C650.265 909.398 649.123 909 647.896 908.659L643.6 907.432C640.873 906.648 638.714 905.528 637.123 904.074C635.532 902.619 634.737 900.716 634.737 898.364C634.737 896.409 635.265 894.705 636.322 893.25C637.39 891.784 638.822 890.648 640.617 889.841C642.424 889.023 644.441 888.614 646.668 888.614C648.918 888.614 650.918 889.017 652.668 889.824C654.418 890.619 655.805 891.71 656.827 893.097C657.862 894.483 658.407 896.057 658.464 897.818H654.373Z" fill="black"/>
</g>
<defs>
<clipPath id="clip0_322_9">
<rect width="2110" height="1237" fill="white"/>
</clipPath>
</defs>
</svg>
