<svg width="1920" height="1920" viewBox="0 0 1920 1920" fill="none" xmlns="http://www.w3.org/2000/svg">
<rect width="1920" height="1920" fill="black"/>
<path d="M1496.78 805.439C1489 812.703 1478.75 816.743 1468.11 816.743H904.898C894.37 816.743 884.226 820.697 876.475 827.822L697.956 991.921C690.205 999.046 680.061 1003 669.533 1003H360.752C322.476 1003 304.15 955.982 332.329 930.079L455.485 816.87C455.534 816.825 455.502 816.743 455.435 816.743C455.369 816.743 455.336 816.661 455.385 816.616L754.471 537.304C762.25 530.04 772.495 526 783.138 526H1689.49C1727.61 526 1746.01 572.682 1718.16 598.696L1496.78 805.439Z" fill="white"/>
<path d="M1464.52 1189.13C1464.47 1189.17 1464.5 1189.26 1464.56 1189.26C1464.63 1189.26 1464.66 1189.34 1464.61 1189.38L1165.53 1468.7C1157.75 1475.96 1147.5 1480 1136.86 1480H230.509C192.395 1480 173.987 1433.32 201.843 1407.3L423.223 1200.56C431.001 1193.3 441.246 1189.26 451.889 1189.26H1015.1C1025.63 1189.26 1035.77 1185.3 1043.53 1178.18L1222.04 1014.08C1229.8 1006.95 1239.94 1003 1250.47 1003H1559.25C1597.52 1003 1615.85 1050.02 1587.67 1075.92L1464.52 1189.13Z" fill="white"/>
<path d="M983.537 1074C1048.7 1074 1079.9 993.95 1031.92 949.856C1018.72 937.729 1001.46 931 983.537 931H936.463C871.299 931 840.102 1011.05 888.081 1055.14C901.275 1067.27 918.542 1074 936.463 1074H983.537Z" fill="white"/>
</svg>
