<svg width="64" height="64" viewBox="0 0 64 64" fill="none" xmlns="http://www.w3.org/2000/svg">
  <rect width="64" height="64" rx="12" fill="#034694"/>
  <g transform="translate(8 12) scale(0.031)">
    <path d="M1308.35 279.439C1300.57 286.703 1290.33 290.743 1279.69 290.743H716.474C705.946 290.743 695.801 294.697 688.05 301.822L509.532 465.921C501.781 473.046 491.636 477 481.108 477H172.328C134.052 477 115.725 429.982 143.904 404.079L267.061 290.87C267.11 290.825 267.078 290.743 267.011 290.743C266.944 290.743 266.912 290.661 266.961 290.616L566.047 11.3041C573.825 4.04022 584.071 0 594.713 0H1501.07C1539.18 0 1557.59 46.6818 1529.73 72.6959L1308.35 279.439Z" fill="white"/>
    <path d="M1276.09 663.13C1276.04 663.175 1276.07 663.257 1276.14 663.257C1276.21 663.257 1276.24 663.339 1276.19 663.384L977.104 942.696C969.326 949.96 959.08 954 948.438 954H42.0846C3.97053 954 -14.4377 907.318 13.4182 881.304L234.798 674.561C242.576 667.297 252.822 663.257 263.464 663.257H826.677C837.205 663.257 847.35 659.303 855.101 652.178L1033.62 488.079C1041.37 480.954 1051.51 477 1062.04 477H1370.82C1409.1 477 1427.43 524.018 1399.25 549.921L1276.09 663.13Z" fill="white"/>
    <path d="M795.113 548C860.276 548 891.474 467.95 843.495 423.856C830.3 411.729 813.033 405 795.113 405H748.038C682.874 405 651.677 485.05 699.656 529.144C712.851 541.271 730.118 548 748.038 548H795.113Z" fill="white"/>
  </g>
</svg>
