<svg xmlns="http://www.w3.org/2000/svg" viewBox="0 0 1200 800" preserveAspectRatio="none">
  <defs>
    <linearGradient id="pitchGradient" x1="0" y1="0" x2="0" y2="1">
      <stop offset="0%" stop-color="#122b1e"/>
      <stop offset="100%" stop-color="#081a12"/>
    </linearGradient>
    <clipPath id="trapezoidClip">
      <polygon points="174,0 1026,0 1200,800 0,800"/>
    </clipPath>
  </defs>

  <g clip-path="url(#trapezoidClip)">
    <rect x="0" y="0" width="1200" height="800" fill="url(#pitchGradient)"/>

    <g stroke="rgba(248,250,252,0.45)" fill="none">
      <!-- Pitch outline -->
      <polygon points="174,0 1026,0 1200,800 0,800" stroke-width="4"/>
      <!-- Halfway line -->
      <line x1="600" y1="0" x2="600" y2="800" stroke-width="3"/>
      <!-- Center circle + spot -->
      <circle cx="600" cy="400" r="86" stroke-width="3"/>
      <circle cx="600" cy="400" r="4" fill="rgba(248,250,252,0.45)" stroke="none"/>

      <!-- BOTTOM (near) penalty area -->
      <rect x="244" y="674" width="712" height="126" stroke-width="3"/>
      <rect x="439" y="758" width="323" height="42" stroke-width="3"/>
      <circle cx="600" cy="716" r="4" fill="rgba(248,250,252,0.45)" stroke="none"/>
      <path d="M 514,716 A 86,86 0 0 1 686,716" stroke-width="3"/>
      <rect x="540" y="794" width="120" height="8" fill="rgba(248,250,252,0.6)" stroke="none"/>

      <!-- TOP (far) penalty area -->
      <rect x="347" y="0" width="506" height="126" stroke-width="3"/>
      <rect x="485" y="0" width="230" height="42" stroke-width="3"/>
      <circle cx="600" cy="84" r="4" fill="rgba(248,250,252,0.45)" stroke="none"/>
      <path d="M 514,84 A 86,86 0 0 0 686,84" stroke-width="3"/>
      <rect x="517" y="-4" width="166" height="8" fill="rgba(248,250,252,0.6)" stroke="none"/>
    </g>
  </g>
</svg>
