<?xml version="1.0" encoding="UTF-8"?>
<svg version="1.1" xmlns="http://www.w3.org/2000/svg" width="441" height="419">
<path d="M0 0 C0.83144531 0.00451172 1.66289062 0.00902344 2.51953125 0.01367188 C4.55471897 0.02536836 6.58986923 0.04330065 8.625 0.0625 C4.92647905 2.52818063 1.04426394 4.54097865 -2.87890625 6.625 C-5.44404241 7.95829554 -5.44404241 7.95829554 -7.375 10.0625 C-4.58398014 11.00196093 -1.79221383 11.93909948 1 12.875 C1.77472656 13.13603516 2.54945313 13.39707031 3.34765625 13.66601562 C10.76753718 16.14952949 18.2548013 18.37249593 25.765625 20.5625 C27.46875 21.0625 29.171875 21.5625 30.875 22.0625 C32.16277344 22.43375 32.16277344 22.43375 33.4765625 22.8125 C38.1234374 24.18511536 42.35346114 25.71734141 46.625 28.0625 C47.285 24.7625 47.945 21.4625 48.625 18.0625 C54.13067123 22.07705194 57.19929565 26.30735651 60.64477539 32.17382812 C63.51147974 37.00979776 66.7675868 41.00206505 70.625 45.0625 C82.22840347 57.32723735 82.22840347 57.32723735 84.625 64.0625 C84.295 65.0525 83.965 66.0425 83.625 67.0625 C83.08230469 66.77375 82.53960937 66.485 81.98046875 66.1875 C80.90732422 65.630625 80.90732422 65.630625 79.8125 65.0625 C78.75095703 64.505625 78.75095703 64.505625 77.66796875 63.9375 C75.53579271 62.86564642 75.53579271 62.86564642 72.625 63.0625 C72.81437134 64.03340576 72.81437134 64.03340576 73.00756836 65.02392578 C74.75150116 74.61596573 75.46721464 84.22839592 76.1875 93.9375 C76.37569318 96.43450214 76.56547173 98.93135932 76.75828552 101.42800903 C76.8769568 102.96821412 76.99290218 104.50863264 77.10560608 106.04928589 C77.41477502 110.10125731 77.8892006 114.06569106 78.625 118.0625 C79.15609375 117.66417969 79.6871875 117.26585938 80.234375 116.85546875 C83.69791667 114.2578125 87.16145833 111.66015625 90.625 109.0625 C90.06716109 118.73170784 86.10530871 126.82525099 81 134.9375 C77.65633629 140.44046274 76.42937715 145.53954255 75.3125 151.8359375 C74.4054476 156.09289933 72.79859611 159.3149205 70.625 163.0625 C69.8825 162.27875 69.14 161.495 68.375 160.6875 C65.37153364 157.63811017 65.37153364 157.63811017 61.625 156.0625 C59.09258554 157.17965311 56.91274567 158.3281622 54.5625 159.75 C48.3546879 163.30644028 42.66638705 165.51918229 35.625 167.0625 C35.625 172.6725 35.625 178.2825 35.625 184.0625 C45.6005388 181.13768036 45.6005388 181.13768036 54.9375 176.6875 C56.2678125 175.883125 56.2678125 175.883125 57.625 175.0625 C58.285 175.3925 58.945 175.7225 59.625 176.0625 C39.44795081 196.14459837 13.5667635 204.4088915 -14.375 205.0625 C-11.88669497 202.57419497 -9.5072066 201.75424309 -6.25 200.4375 C-5.15429688 199.99148437 -4.05859375 199.54546875 -2.9296875 199.0859375 C-1.66511719 198.57933594 -1.66511719 198.57933594 -0.375 198.0625 C-0.375 197.4025 -0.375 196.7425 -0.375 196.0625 C-2.35987907 194.50746545 -2.35987907 194.50746545 -4.8125 193 C-9.32717391 190.11032609 -9.32717391 190.11032609 -10.375 189.0625 C-12.08063778 188.90509395 -13.79227244 188.81156608 -15.50390625 188.74609375 C-16.53837891 188.70419922 -17.57285156 188.66230469 -18.63867188 188.61914062 C-19.72728516 188.57982422 -20.81589844 188.54050781 -21.9375 188.5 C-23.02998047 188.45681641 -24.12246094 188.41363281 -25.24804688 188.36914062 C-27.95689564 188.26267932 -30.66583992 188.16066484 -33.375 188.0625 C-33.06417128 189.81279762 -32.75126821 191.56272694 -32.4375 193.3125 C-32.26347656 194.28703125 -32.08945313 195.2615625 -31.91015625 196.265625 C-31.47120271 198.55971795 -30.97151408 200.80541971 -30.375 203.0625 C-38.85346537 202.08039037 -45.5672217 197.38586523 -51 190.9375 C-55.2457767 186.39469365 -60.03299931 185.36477108 -65.86450195 183.859375 C-73.92938697 181.764186 -81.98949356 178.56981325 -88.375 173.0625 C-88.375 172.4025 -88.375 171.7425 -88.375 171.0625 C-87.3025 171.10375 -86.23 171.145 -85.125 171.1875 C-81.34781557 171.20185229 -77.7974186 170.70174269 -74.078125 170.0546875 C-73.00723633 169.87019043 -71.93634766 169.68569336 -70.83300781 169.49560547 C-70.02186523 169.35268066 -69.21072266 169.20975586 -68.375 169.0625 C-76.50079656 148.30702952 -76.50079656 148.30702952 -93.375 135.0625 C-94.550625 134.47275391 -94.550625 134.47275391 -95.75 133.87109375 C-96.28625 133.60425781 -96.8225 133.33742187 -97.375 133.0625 C-98.16811367 134.79100345 -98.9594259 136.52033354 -99.75 138.25 C-100.19085938 139.21292969 -100.63171875 140.17585937 -101.0859375 141.16796875 C-102.24821851 143.77781792 -103.33424781 146.40225959 -104.375 149.0625 C-109.61836829 143.81913171 -109.5104964 134.99946333 -109.6875 128 C-109.8689236 121.5461782 -111.26768406 117.25463069 -115.1953125 112.078125 C-116.375 110.0625 -116.375 110.0625 -116.18554688 108.07128906 C-115.13256169 105.46166193 -114.08870312 105.10776414 -111.5859375 103.90625 C-106.41925754 100.89062422 -104.98202703 97.02352807 -103 91.5625 C-102.67128906 90.72074219 -102.34257812 89.87898438 -102.00390625 89.01171875 C-101.37668322 87.39922229 -100.76522532 85.78047329 -100.17236328 84.1550293 C-99.375 82.0625 -99.375 82.0625 -97.96875 79.30078125 C-97.10238713 76.95153537 -97.10238713 76.95153537 -98.4921875 74.38671875 C-99.36230469 73.08154297 -99.36230469 73.08154297 -100.25 71.75 C-101.11238281 70.42548828 -101.11238281 70.42548828 -101.9921875 69.07421875 C-102.67667969 68.07841797 -102.67667969 68.07841797 -103.375 67.0625 C-108.93429301 74.73052034 -108.93429301 74.73052034 -113.375 83.0625 C-114.035 82.7325 -114.695 82.4025 -115.375 82.0625 C-109.63401958 56.78935717 -98.37813923 36.9753839 -78.375 20.0625 C-77.88 21.0525 -77.88 21.0525 -77.375 22.0625 C-78.44288535 24.08478969 -79.60487792 26.05791771 -80.8125 28 C-83.62722051 32.22585851 -83.62722051 32.22585851 -84.375 37.0625 C-76.20515511 36.58910712 -72.0904461 34.58820892 -66.6484375 28.52734375 C-62.99225417 24.56333743 -58.80499248 21.13585963 -54.375 18.0625 C-53.715 18.0625 -53.055 18.0625 -52.375 18.0625 C-52.808125 17.43601562 -53.24125 16.80953125 -53.6875 16.1640625 C-54.244375 15.34679688 -54.80125 14.52953125 -55.375 13.6875 C-55.931875 12.87539062 -56.48875 12.06328125 -57.0625 11.2265625 C-58.375 9.0625 -58.375 9.0625 -58.375 7.0625 C-53.68691511 6.08845534 -49.14386587 5.92923049 -44.37866211 5.82226562 C-35.16228763 5.60052728 -26.97964827 5.006339 -18.21484375 2 C-12.1398604 -0.00549657 -6.32423182 -0.06556221 0 0 Z M-8.12109375 20.1015625 C-12.49491768 20.24266867 -16.2090021 20.64624464 -20.375 22.0625 C-23.73425333 25.66251893 -25.01572506 29.38681982 -26.375 34.0625 C-26.88740234 35.43341797 -26.88740234 35.43341797 -27.41015625 36.83203125 C-29.45226265 42.58705838 -30.0899313 47.32514778 -27.43139648 53.11889648 C-26.22389462 55.33033183 -24.94505407 57.47895834 -23.625 59.625 C-23.19445312 60.35396484 -22.76390625 61.08292969 -22.3203125 61.83398438 C-19.66199336 66.25523073 -16.77911495 70.18695186 -13.375 74.0625 C-12.41883789 73.79747681 -12.41883789 73.79747681 -11.44335938 73.52709961 C-6.2376195 72.09458822 -1.02529346 70.72705759 4.21875 69.44140625 C17.92378603 65.9236041 27.7625828 63.31714174 35.625 51.0625 C36.68559235 49.6444046 37.74770534 48.22744277 38.8125 46.8125 C39.410625 45.905 40.00875 44.9975 40.625 44.0625 C36.7556141 35.52763445 27.85967029 29.63000587 20.625 24.0625 C19.69429687 23.32128906 18.76359375 22.58007812 17.8046875 21.81640625 C13.8868579 19.65534299 10.6655088 19.53048143 6.3125 19.6875 C5.53358398 19.7090918 4.75466797 19.73068359 3.95214844 19.75292969 C2.32555293 19.80861258 0.69933198 19.876473 -0.92626953 19.95605469 C-3.32671727 20.06040117 -5.71868635 20.08257904 -8.12109375 20.1015625 Z M-80.375 43.0625 C-81.36371094 43.82433594 -82.35242188 44.58617188 -83.37109375 45.37109375 C-89.10691404 50.03284626 -92.79764119 53.86062368 -94.0859375 61.25390625 C-95.02716581 73.65522517 -95.27387733 85.91276914 -92.375 98.0625 C-76.25357489 97.35153106 -48.77758275 94.46508275 -36.375 82.0625 C-36.08733355 80.16160465 -35.85913643 78.25164715 -35.65625 76.33984375 C-35.46482422 74.57157227 -35.46482422 74.57157227 -35.26953125 72.76757812 C-35.13933594 71.52427734 -35.00914062 70.28097656 -34.875 69 C-34.61504041 66.57156561 -34.35463463 64.14317894 -34.09375 61.71484375 C-33.91912231 59.98089355 -33.91912231 59.98089355 -33.7409668 58.21191406 C-33.44059855 55.62702387 -32.99609581 53.15279623 -32.48828125 50.60546875 C-32.34010471 45.97111961 -34.12124251 43.74793601 -37.0625 40.4375 C-37.96401399 39.36346606 -38.86376962 38.28795363 -39.76171875 37.2109375 C-40.20435059 36.69499023 -40.64698242 36.17904297 -41.10302734 35.64746094 C-42.38491164 34.05014945 -43.44677938 32.4068371 -44.51953125 30.6640625 C-45.13183594 29.80554688 -45.74414062 28.94703125 -46.375 28.0625 C-58.28351539 28.0625 -71.70118088 35.48837269 -80.375 43.0625 Z M44.125 61.375 C43.25101563 61.49294922 42.37703125 61.61089844 41.4765625 61.73242188 C29.93962479 63.40134091 23.76761666 65.7248353 16.625 75.0625 C16.0489502 75.78759766 15.47290039 76.51269531 14.87939453 77.25976562 C12.8962684 79.76003349 10.94488465 82.28239694 9 84.8125 C8.34684814 85.64072266 7.69369629 86.46894531 7.02075195 87.32226562 C6.42351318 88.11826172 5.82627441 88.91425781 5.2109375 89.734375 C4.6648584 90.4469043 4.1187793 91.15943359 3.55615234 91.89355469 C2.35985782 94.07855693 2.35985782 94.07855693 3.24780273 96.58544922 C4.64705962 99.10217682 6.08415095 100.94868042 8.07421875 103.0234375 C8.75806641 103.74273437 9.44191406 104.46203125 10.14648438 105.203125 C11.21866211 106.30914062 11.21866211 106.30914062 12.3125 107.4375 C13.00794922 108.16710937 13.70339844 108.89671875 14.41992188 109.6484375 C15.80580327 111.09772524 17.19881466 112.5402309 18.59912109 113.97558594 C19.92632022 115.34277058 21.2373583 116.72587507 22.52978516 118.12597656 C23.42189697 119.0729541 23.42189697 119.0729541 24.33203125 120.0390625 C24.84870361 120.59932129 25.36537598 121.15958008 25.89770508 121.73681641 C29.69108122 124.64819908 34.43212592 124.18189751 39.01953125 124.16015625 C40.22158203 124.15693359 41.42363281 124.15371094 42.66210938 124.15039062 C43.90798828 124.14201172 45.15386719 124.13363281 46.4375 124.125 C47.70271484 124.12048828 48.96792969 124.11597656 50.27148438 124.11132812 C53.3893711 124.09956251 56.50716133 124.08312272 59.625 124.0625 C62.34593376 118.4203607 65.01531674 112.75699906 67.625 107.0625 C67.955 106.34288086 68.285 105.62326172 68.625 104.88183594 C69.52437619 102.88915557 70.39242946 100.88596968 71.25 98.875 C71.75789063 97.70582031 72.26578125 96.53664062 72.7890625 95.33203125 C74.18570009 89.86948142 71.92405023 86.46858362 69.234375 81.8203125 C68.28755431 80.27216837 67.33425713 78.72796922 66.375 77.1875 C65.90964844 76.42308594 65.44429687 75.65867187 64.96484375 74.87109375 C61.80589192 69.74541157 58.51816093 64.66851538 54.625 60.0625 C51.14006149 60.0625 47.56740212 60.88217747 44.125 61.375 Z M-69.796875 98.30078125 C-72.70425032 100.67842293 -74.98709212 103.16746119 -77.375 106.0625 C-79.05273515 107.67687657 -80.73974976 109.2816855 -82.4375 110.875 C-85.03442618 113.45314191 -87.06838331 115.62298338 -88.375 119.0625 C-88.08282507 121.22540998 -88.08282507 121.22540998 -87.1796875 123.3984375 C-86.87546875 124.21570313 -86.57125 125.03296875 -86.2578125 125.875 C-85.92523438 126.720625 -85.59265625 127.56625 -85.25 128.4375 C-84.940625 129.27539062 -84.63125 130.11328125 -84.3125 130.9765625 C-80.632256 140.64860871 -75.22786578 146.48451966 -67.375 153.0625 C-66.86243652 153.4965918 -66.34987305 153.93068359 -65.82177734 154.37792969 C-64.25293328 155.6921194 -62.66304377 156.9746911 -61.0625 158.25 C-60.09699219 159.02730469 -59.13148438 159.80460937 -58.13671875 160.60546875 C-55.51109056 162.36240722 -55.51109056 162.36240722 -52.88671875 161.5625 C-48.80811092 159.12675287 -45.06858636 156.33548309 -41.34375 153.3984375 C-38.375 151.0625 -38.375 151.0625 -35.96875 149.4765625 C-33.70111923 147.77583942 -32.55621701 146.65209113 -31.375 144.0625 C-31.26380423 139.3811582 -32.063199 135.01333477 -32.96777344 130.44970703 C-33.40760768 127.87135016 -33.64300986 125.32175172 -33.8515625 122.71484375 C-34.283843 113.81606696 -34.283843 113.81606696 -38.08984375 106.15234375 C-40.33699144 105.15450565 -40.33699144 105.15450565 -42.96875 104.75 C-46.04219418 104.12967182 -48.26812617 103.29005575 -51.09375 102 C-60.21090456 97.61470457 -60.21090456 97.61470457 -69.796875 98.30078125 Z M-14.33203125 118.4140625 C-14.94433594 119.49429688 -15.55664062 120.57453125 -16.1875 121.6875 C-16.87745713 122.90372926 -17.56756583 124.11987254 -18.2578125 125.3359375 C-18.60618164 125.96209961 -18.95455078 126.58826172 -19.31347656 127.23339844 C-20.29502977 128.92470401 -21.38970159 130.54898167 -22.4921875 132.1640625 C-29.96624867 143.53027629 -35.21481024 161.34589497 -33.375 175.0625 C-31.62117356 177.02144973 -31.62117356 177.02144973 -29.0625 178.1875 C-27.70318359 178.90873047 -27.70318359 178.90873047 -26.31640625 179.64453125 C-25.34574219 180.11246094 -24.37507813 180.58039063 -23.375 181.0625 C-21.90353516 181.77986328 -21.90353516 181.77986328 -20.40234375 182.51171875 C-8.80684336 187.95832661 3.91670941 189.48434932 16.625 187.0625 C21.56128306 184.77275113 24.38045748 180.60823894 27.26074219 176.14257812 C28.74945074 173.87275048 30.35776634 171.73324965 32.0078125 169.578125 C37.91771997 161.78379192 43.36575632 153.89216497 47.625 145.0625 C47.20202637 144.66981934 46.77905273 144.27713867 46.34326172 143.87255859 C44.39441677 142.0620428 42.44720154 140.24978308 40.5 138.4375 C39.83484375 137.82003906 39.1696875 137.20257813 38.484375 136.56640625 C37.49824219 135.64794922 37.49824219 135.64794922 36.4921875 134.7109375 C35.59669189 133.87828369 35.59669189 133.87828369 34.68310547 133.02880859 C32.625 131.0625 32.625 131.0625 31.32380676 129.58865356 C27.51148577 125.39646046 24.24063746 123.80805359 18.77734375 122.5078125 C17.67586754 122.22090042 17.67586754 122.22090042 16.55213928 121.92819214 C15.01077984 121.53064597 13.4668582 121.14291473 11.9206543 120.76464844 C9.56039758 120.18698544 7.20898955 119.58073133 4.85742188 118.96875 C3.35198922 118.58426284 1.84614215 118.20139386 0.33984375 117.8203125 C-0.35923599 117.64227081 -1.05831573 117.46422913 -1.77857971 117.28079224 C-8.7550137 115.17851715 -8.7550137 115.17851715 -14.33203125 118.4140625 Z " fill="#FFFFFF" transform="translate(233.375,-0.0625)"/>
<path d="M0 0 C5.61 0 11.22 0 17 0 C20.3 8.58 23.6 17.16 27 26 C29.34387949 23.65612051 29.85808494 21.93764713 30.91015625 18.80859375 C31.26013672 17.78185547 31.61011719 16.75511719 31.97070312 15.69726562 C32.33099609 14.62154297 32.69128906 13.54582031 33.0625 12.4375 C33.78001903 10.3103418 34.49994069 8.18399201 35.22265625 6.05859375 C35.53984619 5.11298584 35.85703613 4.16737793 36.18383789 3.19311523 C37 1 37 1 38 0 C40.69654854 -0.07319621 43.36691458 -0.09242537 46.0625 -0.0625 C46.82111328 -0.05798828 47.57972656 -0.05347656 48.36132812 -0.04882812 C50.24091871 -0.0370068 52.12046899 -0.01907078 54 0 C53.83733643 0.55872803 53.67467285 1.11745605 53.50708008 1.69311523 C51.63886115 10.19229707 53.18988286 19.84342243 53.8125 28.4375 C53.88275391 29.59443359 53.95300781 30.75136719 54.02539062 31.94335938 C54.10595703 33.05388672 54.18652344 34.16441406 54.26953125 35.30859375 C54.33760986 36.30689209 54.40568848 37.30519043 54.47583008 38.33374023 C54.88902155 41.45537572 54.88902155 41.45537572 58 45 C51.4 45 44.8 45 38 45 C39.98 42.525 39.98 42.525 42 40 C42.36822402 37.39056559 42.36822402 37.39056559 41.953125 34.69921875 C41.7984375 33.23452148 41.7984375 33.23452148 41.640625 31.74023438 C41.51171875 30.73283203 41.3828125 29.72542969 41.25 28.6875 C41.1365625 27.66076172 41.023125 26.63402344 40.90625 25.57617188 C40.62401363 23.04780437 40.32136972 20.52364144 40 18 C39.7326001 18.74685059 39.4652002 19.49370117 39.18969727 20.26318359 C37.9819192 23.63425204 36.77223411 27.00463303 35.5625 30.375 C35.14162109 31.550625 34.72074219 32.72625 34.28710938 33.9375 C33.88427734 35.05898438 33.48144531 36.18046875 33.06640625 37.3359375 C32.69459229 38.37282715 32.32277832 39.4097168 31.93969727 40.47802734 C31 43 31 43 30 45 C27.36 45 24.72 45 22 45 C17.78264222 36.19206693 14.34569321 27.16329035 11 18 C10.9128253 21.74985325 10.85954997 25.49944555 10.8125 29.25 C10.78736328 30.31347656 10.76222656 31.37695312 10.73632812 32.47265625 C10.72666016 33.49746094 10.71699219 34.52226562 10.70703125 35.578125 C10.6913208 36.52075195 10.67561035 37.46337891 10.65942383 38.43457031 C10.85087404 41.48102724 10.85087404 41.48102724 14 45 C8.39 45 2.78 45 -3 45 C-2.01 43.68 -1.02 42.36 0 41 C0.59487751 37.83150352 0.59487751 37.83150352 0.73046875 34.29296875 C0.81103516 32.98392578 0.89160156 31.67488281 0.97460938 30.32617188 C1.04570338 28.9466213 1.11666585 27.56706394 1.1875 26.1875 C1.26897534 24.81958904 1.35164599 23.45174871 1.43554688 22.08398438 C1.65138654 18.3893172 1.85570062 14.6981574 2 11 C2.04809814 9.78094971 2.09619629 8.56189941 2.14575195 7.3059082 C2.21381761 3.74866179 2.21381761 3.74866179 0 0 Z " fill="#FFFFFF" transform="translate(152,308)"/>
<path d="M0 0 C4.75017651 3.63799077 7.94577799 8.72364055 9.78515625 14.3671875 C10.66640832 22.27796191 10.37770831 29.66124865 5.78515625 36.3671875 C1.08926893 41.77637416 -4.55327666 44.75620541 -11.62890625 45.68359375 C-17.85879122 45.98255108 -22.99163364 44.83965496 -28.21484375 41.3671875 C-33.43055863 36.59938707 -36.86000265 32.05175842 -37.55078125 24.87890625 C-37.63654562 16.48257436 -37.46466977 10.16750912 -31.70703125 3.6640625 C-22.99237282 -4.68579628 -10.52550489 -5.92194731 0 0 Z M-22.21484375 7.3671875 C-25.78156326 13.12351473 -25.67569186 18.92753051 -24.21484375 25.3671875 C-22.81643449 29.83107518 -21.40937369 33.32983255 -17.83984375 36.4296875 C-14.61749847 37.5805251 -12.60972672 37.93300133 -9.21484375 37.3671875 C-6.64198651 35.1945525 -4.72487456 33.38724912 -3.21484375 30.3671875 C-2.65830161 22.81105769 -2.64294374 16.14148062 -6.21484375 9.3671875 C-8.81751152 6.62383499 -10.61729021 5.55392298 -14.21484375 4.4296875 C-18.0197129 4.35041939 -19.36874453 4.82877468 -22.21484375 7.3671875 Z " fill="#FFFFFF" transform="translate(330.21484375,309.6328125)"/>
<path d="M0 0 C6.27 0 12.54 0 19 0 C18.34 1.32 17.68 2.64 17 4 C16.71121265 6.40837755 16.50954974 8.82810468 16.375 11.25 C16.25125 13.4775 16.1275 15.705 16 18 C20.95 18 25.9 18 31 18 C30.87625 15.7725 30.7525 13.545 30.625 11.25 C30.55539063 9.99703125 30.48578125 8.7440625 30.4140625 7.453125 C30.1704849 3.77839435 30.1704849 3.77839435 28 0 C34.27 0 40.54 0 47 0 C46.01 1.65 45.02 3.3 44 5 C43.71273131 7.81866595 43.57874676 10.40820412 43.6015625 13.22265625 C43.59725723 14.39640053 43.59725723 14.39640053 43.59286499 15.59385681 C43.59083018 17.24202196 43.59631919 18.89021159 43.60888672 20.53833008 C43.6249713 23.05800367 43.60900813 25.57607864 43.58984375 28.09570312 C43.59182586 29.70052436 43.59566888 31.30534461 43.6015625 32.91015625 C43.59548981 33.66128189 43.58941711 34.41240753 43.5831604 35.18629456 C43.64626168 39.8859959 44.02953982 41.03938643 47 45 C40.73 45 34.46 45 28 45 C28.66 43.68 29.32 42.36 30 41 C30.29490868 38.38477208 30.50570032 35.87006979 30.625 33.25 C30.74875 30.8575 30.8725 28.465 31 26 C26.05 26 21.1 26 16 26 C16.12375 28.3925 16.2475 30.785 16.375 33.25 C16.40899902 33.99668945 16.44299805 34.74337891 16.47802734 35.51269531 C16.70833177 39.38722863 17.22053677 41.44107355 19 45 C12.73 45 6.46 45 0 45 C0.99 43.68 1.98 42.36 3 41 C3.29270069 38.22560242 3.42084972 35.68230269 3.3984375 32.91015625 C3.40130768 32.12861679 3.40417786 31.34707733 3.40713501 30.54185486 C3.40917286 28.89190953 3.40366249 27.24193988 3.39111328 25.59204102 C3.37507631 23.07447896 3.39095927 20.55852742 3.41015625 18.04101562 C3.40817334 16.43489231 3.40432869 14.82876999 3.3984375 13.22265625 C3.40754654 12.09900414 3.40754654 12.09900414 3.4168396 10.95265198 C3.35054692 5.99316204 2.7102173 4.51702883 0 0 Z " fill="#FFFFFF" transform="translate(47,308)"/>
<path d="M0 0 C6.09258372 -1.52314593 12.09163852 -2.66047689 18 0 C24.84237342 6.65207767 29.51876461 15.65524801 34 24 C34.08710289 20.89601022 34.14042309 17.79233452 34.1875 14.6875 C34.21263672 13.80642578 34.23777344 12.92535156 34.26367188 12.01757812 C34.27817383 10.74624023 34.27817383 10.74624023 34.29296875 9.44921875 C34.31653442 8.27879028 34.31653442 8.27879028 34.34057617 7.0847168 C33.91580186 4.48461081 32.90816129 3.73460633 31 2 C31 1.34 31 0.68 31 0 C35.95 0 40.9 0 46 0 C45.34 1.32 44.68 2.64 44 4 C43.6786595 6.05493662 43.6786595 6.05493662 43.68115234 8.21777344 C43.66128265 9.03832214 43.64141296 9.85887085 43.62094116 10.70428467 C43.60361435 12.01855438 43.60361435 12.01855438 43.5859375 13.359375 C43.56657135 14.26375305 43.5472052 15.1681311 43.5272522 16.09991455 C43.46756169 18.98318099 43.42111314 21.86648758 43.375 24.75 C43.33681053 26.70704848 43.29775823 28.66408033 43.2578125 30.62109375 C43.16186875 35.41392711 43.07779873 40.20683915 43 45 C34.4199918 45.9900765 34.4199918 45.9900765 31.32977295 43.83544922 C29.91763389 42.11027441 28.77849629 40.35932254 27.6484375 38.4375 C27.21866608 37.77161865 26.78889465 37.1057373 26.34609985 36.41967773 C24.9882444 34.29928047 23.68207879 32.15198607 22.375 30 C21.46027616 28.55263165 20.54233745 27.10728975 19.62109375 25.6640625 C17.37615535 22.13175708 15.17703465 18.57451978 13 15 C12.91291248 19.2498709 12.85957819 23.49951239 12.8125 27.75 C12.78736328 28.9565625 12.76222656 30.163125 12.73632812 31.40625 C12.72666016 32.56640625 12.71699219 33.7265625 12.70703125 34.921875 C12.6913208 35.99018555 12.67561035 37.05849609 12.65942383 38.15917969 C12.81307888 41.4459201 12.81307888 41.4459201 16 45 C10.72 45 5.44 45 0 45 C0.99 43.68 1.98 42.36 3 41 C3.29270069 38.22560242 3.42084972 35.68230269 3.3984375 32.91015625 C3.40130768 32.12861679 3.40417786 31.34707733 3.40713501 30.54185486 C3.40917286 28.89190953 3.40366249 27.24193988 3.39111328 25.59204102 C3.37507631 23.07447896 3.39095927 20.55852742 3.41015625 18.04101562 C3.40817334 16.43489231 3.40432869 14.82876999 3.3984375 13.22265625 C3.40754654 12.09900414 3.40754654 12.09900414 3.4168396 10.95265198 C3.35675221 6.45739226 2.69171669 3.62415016 0 0 Z " fill="#FFFFFF" transform="translate(348,308)"/>
<path d="M0 0 C1.2684375 0.7425 1.2684375 0.7425 2.5625 1.5 C2.5625 5.79 2.5625 10.08 2.5625 14.5 C1.510625 13.55125 0.45875 12.6025 -0.625 11.625 C-4.8221384 8.07422091 -7.8345257 6.21655888 -13.4375 6.625 C-17.36375883 7.26209106 -19.66414264 8.56350397 -22.4375 11.5 C-25.23121036 16.02315011 -24.95996575 21.3557218 -24.4375 26.5 C-23.28196048 30.95346616 -21.29769336 34.89176125 -17.4375 37.5 C-14.63631358 37.88297471 -12.29351657 37.73409972 -9.4375 37.5 C-7.86772426 35.93022426 -8.23012919 34.35803613 -8.1875 32.1875 C-8.16171875 31.40761719 -8.1359375 30.62773437 -8.109375 29.82421875 C-8.31926527 26.98781789 -8.31926527 26.98781789 -11.4375 23.5 C-5.1675 23.5 1.1025 23.5 7.5625 23.5 C6.9025 24.82 6.2425 26.14 5.5625 27.5 C5.20241339 29.71604163 5.20241339 29.71604163 5.1484375 32.046875 C5.10976563 32.89121094 5.07109375 33.73554688 5.03125 34.60546875 C4.98484375 35.91451172 4.98484375 35.91451172 4.9375 37.25 C4.89882813 38.13816406 4.86015625 39.02632813 4.8203125 39.94140625 C4.72629127 42.1273998 4.64063857 44.31339062 4.5625 46.5 C3.964375 46.190625 3.36625 45.88125 2.75 45.5625 C0.47293228 44.39790296 0.47293228 44.39790296 -2.4375 43.5 C-3.365625 43.974375 -4.29375 44.44875 -5.25 44.9375 C-10.98001376 47.55867651 -17.29878651 47.25760363 -23.4375 46.5 C-28.60872576 44.56972679 -32.55170189 41.20278211 -35.4375 36.5 C-39.23135747 28.09110378 -39.66338529 20.22584796 -36.40625 11.5703125 C-33.3647021 5.07023029 -28.82138446 2.10430433 -22.4375 -0.5 C-15.9717389 -2.6552537 -6.33983359 -2.77122623 0 0 Z " fill="#FFFFFF" transform="translate(255.4375,372.5)"/>
<path d="M0 0 C1.87869818 1.42826675 3.71354462 2.89367713 5.53222656 4.39746094 C6.09055176 4.85338623 6.64887695 5.30931152 7.22412109 5.77905273 C8.75097656 7.10449219 8.75097656 7.10449219 11.03222656 9.58496094 C11.03222656 10.90496094 11.03222656 12.22496094 11.03222656 13.58496094 C9.71222656 14.24496094 8.39222656 14.90496094 7.03222656 15.58496094 C6.32839844 14.95589844 5.62457031 14.32683594 4.89941406 13.67871094 C-17.39503735 -5.64702763 -45.38590368 -15.43640204 -74.96777344 -13.41503906 C-97.23398338 -11.22963404 -118.07755933 -3.24159919 -134.96777344 11.58496094 C-136.62916158 12.92486578 -138.29456312 14.25984857 -139.96777344 15.58496094 C-141.28777344 14.92496094 -142.60777344 14.26496094 -143.96777344 13.58496094 C-143.96777344 9.58496094 -143.96777344 9.58496094 -142.49121094 7.76074219 C-102.75884723 -26.69805324 -43.20556964 -31.06941459 0 0 Z " fill="#FFFFFF" transform="translate(286.9677734375,244.4150390625)"/>
<path d="M0 0 C0 4.29 0 8.58 0 13 C-1.7578125 11.47005208 -3.515625 9.94010417 -5.2734375 8.41015625 C-8.36897458 5.88190085 -10.50181679 5.83863335 -14.4375 5.8125 C-15.40558594 5.79832031 -16.37367188 5.78414063 -17.37109375 5.76953125 C-20.23266727 5.80850549 -20.23266727 5.80850549 -23 8 C-23.25030977 10.58380177 -23.25030977 10.58380177 -23 13 C-22.32195312 13.17015625 -21.64390625 13.3403125 -20.9453125 13.515625 C-2.31979695 18.36548223 -2.31979695 18.36548223 2 24 C3.88608789 27.77217578 3.6258598 31.90123192 3 36 C0.82670002 40.47932057 -2.48357081 43.11268689 -7.0625 44.9375 C-16.31272218 47.44894312 -25.22299627 46.5703066 -34 43 C-34.33 38.38 -34.66 33.76 -35 29 C-31 31 -31 31 -28.8125 34.0625 C-26.63192382 36.81514091 -25.03624464 37.52789712 -21.5625 38 C-17.67151517 38.20170657 -14.60170541 37.56997415 -11 36 C-10.67 34.35 -10.34 32.7 -10 31 C-14.85207489 28.74767881 -19.65635976 26.76989332 -24.75 25.125 C-29.86485208 23.2839398 -32.2314995 21.70645086 -35 17 C-36.22465416 12.79025132 -36.15310494 10.53136421 -34.9375 6.3125 C-31.99979599 1.28997379 -28.43438564 -0.77942364 -22.9375 -2.3125 C-15.13104546 -3.81017294 -7.3158738 -2.92634952 0 0 Z " fill="#FFFFFF" transform="translate(438,309)"/>
<path d="M0 0 C5.10863896 -0.0246501 10.21724359 -0.04283607 15.32592773 -0.05493164 C17.06519168 -0.05997204 18.80445136 -0.0668043 20.54370117 -0.07543945 C23.03825937 -0.08751792 25.53276173 -0.09323108 28.02734375 -0.09765625 C28.80963852 -0.10281754 29.59193329 -0.10797882 30.39793396 -0.11329651 C32.26567114 -0.11349226 34.13329204 -0.06199694 36 0 C37 1 37 1 37.09765625 3.72265625 C37.08605469 4.82480469 37.07445312 5.92695313 37.0625 7.0625 C37.05347656 8.16722656 37.04445313 9.27195312 37.03515625 10.41015625 C37.02355469 11.26480469 37.01195312 12.11945313 37 13 C36.35675781 12.35546875 35.71351563 11.7109375 35.05078125 11.046875 C31.02711526 8.34725787 27.92631108 8.33738797 23.1875 8.25 C22.00510742 8.20552734 22.00510742 8.20552734 20.79882812 8.16015625 C18.86642554 8.08988707 16.93320985 8.04262866 15 8 C15 11.63 15 15.26 15 19 C16.588125 18.896875 18.17625 18.79375 19.8125 18.6875 C20.70582031 18.62949219 21.59914063 18.57148438 22.51953125 18.51171875 C25.34524829 17.92877555 26.12505566 17.10016288 28 15 C28.66 15 29.32 15 30 15 C30 19.62 30 24.24 30 29 C28.68 28.34 27.36 27.68 26 27 C23.18503259 26.54724722 23.18503259 26.54724722 20.25 26.375 C17.65125 26.189375 17.65125 26.189375 15 26 C15 30.29 15 34.58 15 39 C17.73344259 38.99397256 20.45563162 38.94647979 23.1875 38.875 C23.95642578 38.87757813 24.72535156 38.88015625 25.51757812 38.8828125 C29.92068412 38.78130214 29.92068412 38.78130214 33.59619141 36.60644531 C34.78923044 35.11591326 35.90070649 33.56095538 37 32 C37.66 32 38.32 32 39 32 C39.0861953 36.99932751 38.8372965 40.97622101 38 46 C25.46 46 12.92 46 0 46 C0.66 44.35 1.32 42.7 2 41 C2.18863728 38.20051593 2.28061788 35.50445267 2.265625 32.70703125 C2.26753845 31.91979172 2.2694519 31.13255219 2.27142334 30.32145691 C2.2727796 28.66490355 2.26912235 27.00833936 2.26074219 25.35180664 C2.24999141 22.81046923 2.26067816 20.2698318 2.2734375 17.72851562 C2.27211665 16.11718594 2.26955579 14.50585668 2.265625 12.89453125 C2.26967346 12.13308304 2.27372192 11.37163483 2.27789307 10.58711243 C2.3891364 6.3324266 2.3891364 6.3324266 0 3 C0 2.01 0 1.02 0 0 Z " fill="#FFFFFF" transform="translate(324,372)"/>
<path d="M0 0 C5.10863896 -0.0246501 10.21724359 -0.04283607 15.32592773 -0.05493164 C17.06519168 -0.05997204 18.80445136 -0.0668043 20.54370117 -0.07543945 C23.03825937 -0.08751792 25.53276173 -0.09323108 28.02734375 -0.09765625 C28.80963852 -0.10281754 29.59193329 -0.10797882 30.39793396 -0.11329651 C32.26567114 -0.11349226 34.13329204 -0.06199694 36 0 C37 1 37 1 37.09765625 3.72265625 C37.08605469 4.82480469 37.07445312 5.92695313 37.0625 7.0625 C37.05347656 8.16722656 37.04445312 9.27195312 37.03515625 10.41015625 C37.02355469 11.26480469 37.01195312 12.11945313 37 13 C36.35675781 12.35546875 35.71351563 11.7109375 35.05078125 11.046875 C31.02711526 8.34725787 27.92631108 8.33738797 23.1875 8.25 C22.00510742 8.20552734 22.00510742 8.20552734 20.79882812 8.16015625 C18.86642554 8.08988707 16.93320985 8.04262866 15 8 C15 11.63 15 15.26 15 19 C16.588125 18.896875 18.17625 18.79375 19.8125 18.6875 C20.70582031 18.62949219 21.59914062 18.57148438 22.51953125 18.51171875 C25.34524829 17.92877555 26.12505566 17.10016288 28 15 C28.66 15 29.32 15 30 15 C30 19.62 30 24.24 30 29 C28.68 28.34 27.36 27.68 26 27 C23.18503259 26.54724722 23.18503259 26.54724722 20.25 26.375 C17.65125 26.189375 17.65125 26.189375 15 26 C15 30.29 15 34.58 15 39 C17.73344259 38.99397256 20.45563162 38.94647979 23.1875 38.875 C23.95642578 38.87757813 24.72535156 38.88015625 25.51757812 38.8828125 C29.92068412 38.78130214 29.92068412 38.78130214 33.59619141 36.60644531 C34.78923044 35.11591326 35.90070649 33.56095538 37 32 C37.66 32 38.32 32 39 32 C39.02736707 33.39572052 39.04655989 34.79160221 39.0625 36.1875 C39.07410156 36.96480469 39.08570313 37.74210937 39.09765625 38.54296875 C39 41 39 41 38 46 C25.46 46 12.92 46 0 46 C0.66 44.35 1.32 42.7 2 41 C2.18863962 38.23518384 2.28061863 35.57520695 2.265625 32.8125 C2.26753845 32.03237549 2.2694519 31.25225098 2.27142334 30.44848633 C2.27278002 28.80452144 2.26911979 27.16054566 2.26074219 25.51660156 C2.25003508 23.00821746 2.26065479 20.50054947 2.2734375 17.9921875 C2.27211581 16.39062343 2.26955323 14.7890598 2.265625 13.1875 C2.27169769 12.06855347 2.27169769 12.06855347 2.27789307 10.92700195 C2.24135639 6.84563354 1.81688875 3.67347121 0 0 Z " fill="#FFFFFF" transform="translate(123,372)"/>
<path d="M0 0 C6.27 0 12.54 0 19 0 C17 4 17 4 16 5 C15.73385416 9.07808844 15.72874034 13.1598149 15.70483398 17.24584961 C15.68765397 19.29414312 15.64379011 21.34080822 15.59960938 23.38867188 C15.59123047 24.67966797 15.58285156 25.97066406 15.57421875 27.30078125 C15.55963623 28.48841064 15.54505371 29.67604004 15.5300293 30.8996582 C16.09166654 34.60471343 17.05828428 35.75668699 20 38 C22.24527933 38.58858845 22.24527933 38.58858845 24.5625 38.4375 C25.32691406 38.43621094 26.09132813 38.43492187 26.87890625 38.43359375 C29.62296345 37.87265388 30.34713296 37.26652368 32 35 C32.44874786 31.77068181 32.44874786 31.77068181 32.36328125 28.06640625 C32.36377975 27.39206039 32.36427826 26.71771454 32.36479187 26.02293396 C32.36245394 24.59818574 32.35274178 23.17343319 32.33618164 21.7487793 C32.31262108 19.5736779 32.31561817 17.3998057 32.32226562 15.22460938 C32.43572705 7.37161121 32.43572705 7.37161121 30 0 C34.62 0 39.24 0 44 0 C43 4 43 4 42 5 C41.88940449 7.37618546 41.83840455 9.72820637 41.82421875 12.10546875 C41.80100486 13.57879008 41.7768869 15.0520974 41.75195312 16.52539062 C41.71694408 18.85141147 41.68756133 21.17692256 41.67407227 23.50317383 C41.65851371 25.74623954 41.61824044 27.98780386 41.57421875 30.23046875 C41.57612717 30.9181987 41.57803558 31.60592865 41.58000183 32.3144989 C41.45480493 37.30238183 40.12191639 40.15357619 37 44 C32.2915603 47.19067619 28.13170786 47.51423581 22.625 47.4375 C21.87202637 47.42992676 21.11905273 47.42235352 20.34326172 47.41455078 C14.5979565 47.24370059 10.68053129 46.55720378 6 43 C3.16991596 38.44311311 2.61463094 34.91002115 2.55859375 29.58984375 C2.54538589 28.89991837 2.53217804 28.20999298 2.51856995 27.49916077 C2.47796052 25.31189858 2.45608562 23.12505179 2.4375 20.9375 C2.41362455 18.746505 2.38538875 16.55589598 2.34571838 14.36512756 C2.31042298 12.38021429 2.29041362 10.39504657 2.27124023 8.40991211 C2.14056626 4.63463601 2.14056626 4.63463601 0 0 Z " fill="#FFFFFF" transform="translate(271,372)"/>
<path d="M0 0 C5.28 0 10.56 0 16 0 C16.40839111 1.22630127 16.81678223 2.45260254 17.23754883 3.71606445 C18.75492389 8.26451908 20.28400233 12.80896627 21.81665039 17.35229492 C22.47838174 19.31931935 23.1369332 21.28741651 23.79223633 23.2565918 C24.73465589 26.08670412 25.68843998 28.91276287 26.64453125 31.73828125 C26.9352803 32.61962234 27.22602936 33.50096344 27.52558899 34.40901184 C27.80565292 35.22963608 28.08571686 36.05026031 28.37426758 36.89575195 C28.61631424 37.61745071 28.8583609 38.33914948 29.10774231 39.0827179 C30.09560451 41.20543483 31.34168101 42.37714727 33 44 C33 44.66 33 45.32 33 46 C26.4 46 19.8 46 13 46 C13.99 44.68 14.98 43.36 16 42 C15.67 39.69 15.34 37.38 15 35 C10.05 35.33 5.1 35.66 0 36 C-1.57591812 41.82844992 -1.57591812 41.82844992 1 46 C-4.28 46 -9.56 46 -15 46 C-14.12214844 44.30488281 -13.24429688 42.60976563 -12.33984375 40.86328125 C-8.97327891 34.1212427 -6.19523655 27.24354879 -3.5625 20.1875 C-2.87510742 18.4250293 -2.87510742 18.4250293 -2.17382812 16.62695312 C-1.74650391 15.48548828 -1.31917969 14.34402344 -0.87890625 13.16796875 C-0.4929126 12.14985107 -0.10691895 11.1317334 0.29077148 10.08276367 C1.33878842 6.37340849 1.33878842 6.37340849 0 0 Z M7 13 C6.32739649 14.76858691 5.66211605 16.53996016 5 18.3125 C4.62875 19.29863281 4.2575 20.28476562 3.875 21.30078125 C2.84581498 24.00271656 2.84581498 24.00271656 3 27 C6.3 27 9.6 27 13 27 C11.68 22.38 10.36 17.76 9 13 C8.34 13 7.68 13 7 13 Z " fill="#FFFFFF" transform="translate(181,372)"/>
<path d="M0 0 C4.49977884 -0.11690073 8.99916287 -0.18748837 13.5 -0.25 C15.40265625 -0.30027344 15.40265625 -0.30027344 17.34375 -0.3515625 C25.45390765 -0.43604331 31.33917161 -0.10939863 37.64257812 5.44824219 C40.66127374 8.89911077 40.334198 13.15621946 40.27734375 17.49609375 C39.7241309 22.49059289 37.11256115 25.10013437 33.34375 28.1484375 C29.44760887 30.30588013 26.44461605 30.46765507 22.125 30.25 C21.43664062 30.23195313 20.74828125 30.21390625 20.0390625 30.1953125 C18.3587619 30.14863748 16.67918837 30.07690939 15 30 C15.06037732 31.75094232 15.14926737 33.50091527 15.25 35.25 C15.29640625 36.22453125 15.3428125 37.1990625 15.390625 38.203125 C15.86336023 41.58385006 15.86336023 41.58385006 20 45 C13.4 45 6.8 45 0 45 C0.66 43.68 1.32 42.36 2 41 C2.19240612 38.18433604 2.28030631 35.47082501 2.265625 32.65625 C2.26753845 31.85014282 2.2694519 31.04403564 2.27142334 30.21350098 C2.27278194 28.51228523 2.2691082 26.811059 2.26074219 25.10986328 C2.25003788 22.50920271 2.26064828 19.90923289 2.2734375 17.30859375 C2.27211585 15.65364431 2.26955333 13.9986953 2.265625 12.34375 C2.26967346 11.56761353 2.27372192 10.79147705 2.27789307 9.99182129 C2.24491492 6.18595386 2.14570987 3.22602259 0 0 Z M15 7 C15 12.28 15 17.56 15 23 C21.3008541 23.68507487 21.3008541 23.68507487 26.625 20.9375 C28.4158923 17.11150281 28.12046692 15.03368093 27 11 C25.34659893 8.82098069 24.42764633 8.0967559 21.73828125 7.48828125 C20.93777344 7.43027344 20.13726562 7.37226563 19.3125 7.3125 C17.1778125 7.1578125 17.1778125 7.1578125 15 7 Z " fill="#FFFFFF" transform="translate(218,308)"/>
<path d="M0 0 C5.28 0 10.56 0 16 0 C16.40839111 1.22106445 16.81678223 2.44212891 17.23754883 3.70019531 C18.7564525 8.23511524 20.28508084 12.7667069 21.81665039 17.29736328 C22.47783347 19.25773303 23.13638524 21.21899232 23.79223633 23.18115234 C24.73607024 26.00336577 25.68935894 28.82223194 26.64453125 31.640625 C26.9352803 32.51680481 27.22602936 33.39298462 27.52558899 34.29571533 C27.80565292 35.11626404 28.08571686 35.93681274 28.37426758 36.78222656 C28.61631424 37.50170471 28.8583609 38.22118286 29.10774231 38.96246338 C30.11184458 41.46677108 30.11184458 41.46677108 33 45 C26.4 45 19.8 45 13 45 C13.99 43.35 14.98 41.7 16 40 C15.67 38.02 15.34 36.04 15 34 C10.05 34.33 5.1 34.66 0 35 C-1.73870411 41.61430493 -1.73870411 41.61430493 1 45 C-4.28 45 -9.56 45 -15 45 C-14.40292236 43.99388672 -13.80584473 42.98777344 -13.19067383 41.95117188 C-10.0396711 36.42922993 -7.82247528 30.52137253 -5.51635742 24.61181641 C-4.6871239 22.49904175 -3.83510543 20.39636922 -2.98242188 18.29296875 C-2.44909197 16.93545633 -1.91714297 15.5774004 -1.38671875 14.21875 C-0.66295044 12.3924707 -0.66295044 12.3924707 0.07543945 10.52929688 C1.38464705 6.46191201 1.38464705 6.46191201 0 0 Z M7 12 C5.35 16.95 3.7 21.9 2 27 C5.63 27 9.26 27 13 27 C12.38454214 24.68456386 11.75821964 22.37307804 11.125 20.0625 C10.95097656 19.40314453 10.77695313 18.74378906 10.59765625 18.06445312 C10.12523763 16.358497 9.56784972 14.67660739 9 13 C8.34 12.67 7.68 12.34 7 12 Z " fill="#FFFFFF" transform="translate(113,308)"/>
<path d="M0 0 C0 4.95 0 9.9 0 15 C-5 10 -5 10 -6.54296875 8.21875 C-9.05652045 6.11626171 -11.56220777 6.47189459 -14.7109375 6.58984375 C-18.76238851 7.31578634 -20.28771035 8.89078991 -23 12 C-25.37578108 17.37133114 -25.42415399 22.37510401 -24 28 C-21.32249463 32.98569965 -18.7281618 36.11176127 -13.3125 37.875 C-8.76116584 38.04674846 -5.20197786 36.616761 -1 35 C-0.01 34.67 0.98 34.34 2 34 C2.48632219 41.41641337 2.48632219 41.41641337 0.4375 43.875 C-7.66296729 47.61367721 -15.71846002 48.4088192 -24.1875 45.5 C-30.18195833 42.84733419 -34.25863828 38.50617613 -37.16015625 32.6640625 C-39.39726851 25.56773432 -39.05736465 17.30557175 -36.0625 10.5 C-32.48777134 4.36035304 -26.9444231 0.7279265 -20.25 -1.4375 C-13.79948621 -2.7406341 -6.20777483 -2.06925828 0 0 Z " fill="#FFFFFF" transform="translate(38,308)"/>
<path d="M0 0 C6.6 0 13.2 0 20 0 C19 3 19 3 17 4 C16.67 15.22 16.34 26.44 16 38 C29.83449247 38.36338663 29.83449247 38.36338663 35.4375 33.9375 C36.283125 32.968125 37.12875 31.99875 38 31 C37.85930804 33.12534659 37.71229079 35.25027529 37.5625 37.375 C37.48128906 38.55835938 37.40007812 39.74171875 37.31640625 40.9609375 C37 44 37 44 36 46 C24.12 46 12.24 46 0 46 C0.66 44.68 1.32 43.36 2 42 C2.19265749 39.11231869 2.2802698 36.32420205 2.265625 33.4375 C2.26753845 32.60919678 2.2694519 31.78089355 2.27142334 30.92749023 C2.27278212 29.17919612 2.26910714 27.43089182 2.26074219 25.68261719 C2.25003818 23.00953466 2.26064773 20.33712417 2.2734375 17.6640625 C2.27211585 15.96354019 2.26955334 14.26301829 2.265625 12.5625 C2.26967346 11.76448975 2.27372192 10.96647949 2.27789307 10.14428711 C2.24270343 5.97144822 1.9120681 3.82413619 0 0 Z " fill="#FFFFFF" transform="translate(79,372)"/>
<path d="M0 0 C2.8828125 2.6484375 2.8828125 2.6484375 5 5 C5.0625 7.1875 5.0625 7.1875 4 9 C1.9375 10.25 1.9375 10.25 0 11 C-0.598125 10.154375 -1.19625 9.30875 -1.8125 8.4375 C-10.65469925 -2.09365865 -25.27799093 -7.26471564 -38.56958008 -8.66943359 C-56.65867281 -10.11300264 -72.55884783 -3.16601108 -86.1875 8.4375 C-87.115625 9.283125 -88.04375 10.12875 -89 11 C-90.5625 9.75 -90.5625 9.75 -92 8 C-91.9054983 5.23165594 -91.12221724 4.13752919 -89.28515625 2.0703125 C-62.76941823 -21.13678334 -27.68829379 -21.51921129 0 0 Z " fill="#FFFFFF" transform="translate(264,286)"/>
<path d="M0 0 C6.27 0 12.54 0 19 0 C18.34 1.32 17.68 2.64 17 4 C16.80759388 6.81566396 16.71969369 9.52917499 16.734375 12.34375 C16.73246155 13.14985718 16.7305481 13.95596436 16.72857666 14.78649902 C16.72721806 16.48771477 16.7308918 18.188941 16.73925781 19.89013672 C16.74996212 22.49079729 16.73935172 25.09076711 16.7265625 27.69140625 C16.72788415 29.34635569 16.73044667 31.0013047 16.734375 32.65625 C16.73032654 33.43238647 16.72627808 34.20852295 16.72210693 35.00817871 C16.75786661 39.13505113 17.10584081 41.21168161 19 45 C12.73 45 6.46 45 0 45 C0.99 43.68 1.98 42.36 3 41 C3.29270069 38.22560242 3.42084972 35.68230269 3.3984375 32.91015625 C3.40130768 32.12861679 3.40417786 31.34707733 3.40713501 30.54185486 C3.40917286 28.89190953 3.40366249 27.24193988 3.39111328 25.59204102 C3.37507631 23.07447896 3.39095927 20.55852742 3.41015625 18.04101562 C3.40817334 16.43489231 3.40432869 14.82876999 3.3984375 13.22265625 C3.40754654 12.09900414 3.40754654 12.09900414 3.4168396 10.95265198 C3.35054692 5.99316204 2.7102173 4.51702883 0 0 Z " fill="#FFFFFF" transform="translate(265,308)"/>
<path d="M0 0 C0.33 2.31 0.66 4.62 1 7 C-7.42857143 9.28571429 -7.42857143 9.28571429 -12 9 C-11.67 9.99 -11.34 10.98 -11 12 C-5.06 11.505 -5.06 11.505 1 11 C1.33 13.31 1.66 15.62 2 18 C-1.96 18.66 -5.92 19.32 -10 20 C-9.67 20.66 -9.34 21.32 -9 22 C-2.565 21.505 -2.565 21.505 4 21 C4.33 23.31 4.66 25.62 5 28 C3.12922332 28.53580497 1.2531083 29.05298887 -0.625 29.5625 C-1.66914063 29.85253906 -2.71328125 30.14257812 -3.7890625 30.44140625 C-7.33317006 31.05796024 -9.5675244 31.08616694 -13 30 C-16.74464121 26.47487224 -17.77139835 23.09412172 -18.75 18.125 C-19.11351562 16.36542969 -19.11351562 16.36542969 -19.484375 14.5703125 C-20.00101741 10.99295523 -20.09230044 7.60894702 -20 4 C-13.53690874 1.61886111 -6.89733709 0 0 0 Z " fill="#FFFFFF" transform="translate(211,236)"/>
<path d="M0 0 C1.33447266 1.25341797 1.33447266 1.25341797 2.6640625 2.9921875 C3.14617187 3.61480469 3.62828125 4.23742187 4.125 4.87890625 C4.62 5.53761719 5.115 6.19632813 5.625 6.875 C6.37910156 7.85146484 6.37910156 7.85146484 7.1484375 8.84765625 C10.60811741 13.35826043 12.36776902 15.94334641 12.28125 21.90234375 C11.68451883 26.35296375 9.08247715 29.0979357 5.75 31.875 C2.15780146 33.34453576 -1.22409504 33.86716081 -5 33 C-10.05485768 30.21881325 -13.05364972 26.81560235 -16.375 22.25 C-16.82488281 21.64800781 -17.27476562 21.04601562 -17.73828125 20.42578125 C-18.83411708 18.95689492 -19.91829713 17.47932488 -21 16 C-19.68 14.35 -18.36 12.7 -17 11 C-11.88084673 12.92257793 -9.51957076 17.39536034 -6.4140625 21.6640625 C-4.16625675 24.30817453 -4.16625675 24.30817453 -0.7734375 24.3984375 C1.90309854 24.2966911 1.90309854 24.2966911 3 23 C2.7324874 17.22735968 1.22870161 14.47356151 -2.625 10.25 C-5.1640625 7.453125 -5.1640625 7.453125 -7 5 C-5.64703851 0.94111554 -4.27479763 0 0 0 Z " fill="#FFFFFF" transform="translate(172,249)"/>
<path d="M0 0 C3.25696479 0.41755959 4.63443291 0.63443291 7 3 C6.65361952 9.54570286 4.38618418 15.72100452 2.4375 21.9375 C2.10814453 23.00291016 1.77878906 24.06832031 1.43945312 25.16601562 C0.631 27.77884238 -0.18226535 30.39006622 -1 33 C-4.295419 31.45804411 -6.18650837 30.24519555 -8 27 C-7.6875 24.75 -7.6875 24.75 -7 23 C-8.32 22.34 -9.64 21.68 -11 21 C-11 20.34 -11 19.68 -11 19 C-10.21625 18.7525 -9.4325 18.505 -8.625 18.25 C-5.54375423 17.11295988 -5.54375423 17.11295988 -4 13 C-8.29 15.64 -12.58 18.28 -17 21 C-20.465 19.02 -20.465 19.02 -24 17 C-21.35382496 14.20641831 -18.75797318 12.04179852 -15.48828125 10.01953125 C-14.64845703 9.49552734 -13.80863281 8.97152344 -12.94335938 8.43164062 C-12.07517578 7.89732422 -11.20699219 7.36300781 -10.3125 6.8125 C-8.57878659 5.7367086 -6.84567994 4.65993853 -5.11328125 3.58203125 C-3.96533081 2.87397339 -3.96533081 2.87397339 -2.79418945 2.15161133 C-1.05289791 1.12393861 -1.05289791 1.12393861 0 0 Z " fill="#FFFFFF" transform="translate(275,254)"/>
<path d="M0 0 C0.80695313 0.13277344 1.61390625 0.26554688 2.4453125 0.40234375 C3.30640625 0.53640625 4.1675 0.67046875 5.0546875 0.80859375 C8.29984401 1.49390631 11.41643186 2.31140441 14.5703125 3.33984375 C13.9103125 5.64984375 13.2503125 7.95984375 12.5703125 10.33984375 C8.22566714 9.7315934 3.89479383 9.07816983 -0.4296875 8.33984375 C-0.4296875 9.32984375 -0.4296875 10.31984375 -0.4296875 11.33984375 C3.2003125 11.99984375 6.8303125 12.65984375 10.5703125 13.33984375 C10.2403125 15.64984375 9.9103125 17.95984375 9.5703125 20.33984375 C8.15328737 20.19753567 6.7367029 20.05083629 5.3203125 19.90234375 C4.13695312 19.78052734 4.13695312 19.78052734 2.9296875 19.65625 C0.74666611 19.36349382 -1.3070057 18.91919956 -3.4296875 18.33984375 C-3.5740625 19.61859375 -3.7184375 20.89734375 -3.8671875 22.21484375 C-4.13611496 24.59677269 -4.35195096 26.18437066 -5.4296875 28.33984375 C-7.4096875 28.00984375 -9.3896875 27.67984375 -11.4296875 27.33984375 C-12.92606156 22.61546346 -11.60278471 19.04639842 -10.3046875 14.40234375 C-10.10359375 13.60376953 -9.9025 12.80519531 -9.6953125 11.98242188 C-8.20835742 6.57653398 -6.29142475 0.87999028 0 0 Z " fill="#FFFFFF" transform="translate(240.4296875,237.66015625)"/>
<path d="M0 0 C1.9375 1.625 1.9375 1.625 3 4 C3 7.5625 3 7.5625 2 11 C-0.66179684 13.36604164 -2.06210117 14.04466185 -5.625 13.875 C-8.30591626 12.88729401 -9.46609879 12.42194927 -11 10 C-11.65439093 3.89235127 -11.65439093 3.89235127 -9.625 1.125 C-6.09737898 -1.31719917 -4.15086173 -1.10124903 0 0 Z M-8 3 C-9.29633621 4.06645115 -9.29633621 4.06645115 -9.0625 6.5625 C-9.041875 7.366875 -9.02125 8.17125 -9 9 C-8.01 9.495 -8.01 9.495 -7 10 C-7 7.69 -7 5.38 -7 3 C-7.33 3 -7.66 3 -8 3 Z M-1 3 C-1.67958603 5.39719432 -1.67958603 5.39719432 -2 8 C-1.34 8.66 -0.68 9.32 0 10 C0.67958603 7.60280568 0.67958603 7.60280568 1 5 C0.34 4.34 -0.32 3.68 -1 3 Z M-5 4 C-4.67 4.66 -4.34 5.32 -4 6 C-3.67 5.34 -3.34 4.68 -3 4 C-3.66 4 -4.32 4 -5 4 Z M-5 8 C-5 9.32 -5 10.64 -5 12 C-4.34 12 -3.68 12 -3 12 C-3.33 10.68 -3.66 9.36 -4 8 C-4.33 8 -4.66 8 -5 8 Z " fill="#FFFFFF" transform="translate(385,372)"/>
</svg>
